<?xml version="1.0" standalone="no"?>
<!DOCTYPE svg PUBLIC "-//W3C//DTD SVG 20010904//EN"
 "http://www.w3.org/TR/2001/REC-SVG-20010904/DTD/svg10.dtd">
<svg version="1.0" xmlns="http://www.w3.org/2000/svg"
 width="1134.000000pt" height="1134.000000pt" viewBox="0 0 1134.000000 1134.000000"
 preserveAspectRatio="xMidYMid meet">

<g transform="translate(0.000000,1134.000000) scale(0.100000,-0.100000)"
fill="#000000" stroke="none">
<path d="M0 11084 l0 -256 22 6 c13 4 44 9 70 13 58 7 53 23 -8 23 -24 0 -44
3 -44 8 0 4 38 33 85 65 l85 58 55 -10 c58 -11 110 -34 163 -74 l33 -25 -96
-51 c-52 -28 -98 -51 -100 -51 -3 0 -24 14 -47 30 -22 17 -45 30 -50 30 -17 0
73 -100 103 -116 26 -13 27 -17 17 -40 -10 -20 -9 -27 2 -34 11 -7 -4 -17 -55
-41 -64 -29 -72 -30 -109 -19 -23 6 -60 22 -83 35 l-43 24 0 -2208 c0 -1645 3
-2210 11 -2218 17 -17 18 -152 2 -146 -10 4 -13 -608 -13 -3041 l0 -3046 5670
0 5670 0 0 1645 0 1645 -55 0 c-50 0 -56 2 -70 30 -8 16 -27 36 -42 43 -31 17
-24 22 38 31 41 6 50 4 79 -20 17 -15 36 -37 40 -48 5 -12 9 1787 9 3997 l1
4017 -705 0 c-582 0 -705 -2 -705 -13 0 -18 -37 -34 -134 -57 -105 -26 -106
-25 -106 9 0 48 -9 61 -44 61 -17 0 -38 -4 -46 -10 -9 -5 -19 -5 -26 1 -7 5
-42 9 -79 7 l-66 -3 42 -32 c24 -18 37 -33 30 -33 -7 0 -10 -4 -7 -9 3 -4 6
-73 7 -152 0 -79 5 -152 11 -162 9 -17 8 -17 -19 -3 -15 8 -46 32 -68 52 -22
20 -57 52 -78 71 l-38 34 15 47 c15 46 20 96 17 160 l-1 32 -94 0 -94 0 3 -27
c2 -16 -1 -33 -6 -40 -7 -7 -6 -14 1 -18 12 -7 14 -52 2 -59 -11 -7 -93 32
-120 57 l-23 21 68 33 68 32 -812 1 c-806 0 -813 0 -813 -20 0 -17 7 -20 40
-20 33 0 40 -3 40 -20 0 -17 7 -20 40 -20 33 0 40 -3 40 -20 0 -17 7 -20 40
-20 33 0 40 -3 40 -20 0 -18 7 -20 60 -20 l60 0 0 -34 c0 -40 -8 -66 -22 -66
-5 0 -6 5 -2 11 4 7 -1 7 -16 -1 -18 -10 -20 -14 -9 -21 9 -5 10 -9 2 -9 -6 0
-25 -11 -41 -25 -16 -13 -33 -21 -37 -17 -5 4 -4 1 0 -7 6 -11 4 -13 -11 -7
-10 4 -15 4 -12 0 4 -3 -5 -17 -20 -31 -15 -13 0 -6 33 17 33 22 90 60 126 85
67 44 117 90 74 67 -18 -9 -21 -7 -22 11 -1 12 1 17 5 11 8 -13 37 -12 65 1
27 12 150 -2 213 -25 51 -17 55 -18 52 -2 -2 10 -11 16 -23 14 -14 -2 -16 0
-7 6 7 5 14 19 15 30 1 17 6 21 22 16 11 -4 23 -11 26 -17 4 -5 12 -6 19 -2 9
5 11 4 6 -3 -5 -8 2 -12 21 -12 36 0 49 -9 57 -40 7 -24 6 -24 -8 -6 -9 11
-16 23 -16 28 0 4 -5 8 -10 8 -7 0 -7 -6 0 -19 13 -26 13 -34 -2 -24 -7 4 -23
6 -34 5 -14 -2 -30 7 -44 25 -16 19 -21 21 -15 8 4 -11 8 -28 9 -37 0 -9 3
-15 7 -12 4 2 13 -4 20 -13 12 -15 12 -16 -8 -11 -16 4 -20 2 -16 -8 3 -8 0
-14 -7 -14 -7 0 -2 -9 11 -20 14 -11 18 -19 11 -20 -9 0 -12 -16 -10 -57 3
-67 -9 -86 -82 -123 -25 -13 -39 -25 -32 -28 7 -2 24 4 38 13 14 9 29 14 32
10 4 -3 0 -10 -7 -15 -12 -7 -12 -11 2 -24 15 -15 16 -13 19 26 2 31 8 44 21
46 14 3 17 -5 18 -45 1 -46 2 -47 8 -13 4 20 10 41 14 47 4 6 2 13 -5 15 -6 2
-8 10 -4 16 16 27 25 -2 19 -65 l-6 -66 24 6 c13 4 44 7 69 7 l45 0 3 88 c5
117 13 120 11 3 -2 -105 -2 -105 -104 -121 -34 -5 -41 -8 -20 -9 63 -3 107
-14 93 -23 -9 -6 -5 -8 12 -6 21 2 48 -20 148 -120 119 -119 136 -140 109
-129 -19 7 -36 -25 -30 -57 4 -17 18 -35 37 -47 28 -17 29 -19 9 -19 -17 0
-21 -4 -16 -17 4 -11 8 -13 11 -5 3 10 7 10 20 0 12 -10 14 -10 8 0 -4 7 -1
15 8 18 9 3 16 12 16 19 0 8 8 16 18 18 13 4 12 5 -5 6 -25 1 -38 16 -23 26 5
3 10 1 10 -5 0 -6 6 -10 13 -9 6 1 31 1 55 0 l42 -1 0 -80 0 -80 40 0 40 0 0
-40 c0 -33 3 -40 20 -40 17 0 20 -7 20 -40 l0 -40 60 0 60 0 0 -80 c0 -73 2
-80 20 -80 17 0 20 -7 20 -40 0 -33 3 -40 20 -40 17 0 20 -7 20 -40 0 -33 3
-40 20 -40 17 0 20 -7 20 -40 0 -36 2 -40 25 -40 29 0 45 -28 24 -40 -7 -5
-10 -13 -5 -17 5 -4 11 -2 13 5 5 13 33 17 33 4 0 -5 -11 -15 -25 -22 -13 -7
-22 -17 -19 -22 3 -5 12 -4 20 3 8 6 14 8 14 3 0 -5 7 0 15 10 20 27 36 30
135 30 80 -1 89 -3 162 -42 42 -22 86 -50 97 -61 12 -12 26 -21 31 -21 6 0 10
-5 10 -11 0 -6 -15 0 -32 15 -18 14 -69 45 -113 68 -63 32 -93 42 -145 45 -88
6 -119 -12 -196 -113 -51 -65 -65 -91 -75 -142 -13 -60 -12 -68 24 -210 36
-143 48 -225 27 -192 -8 13 -10 13 -14 0 -2 -8 -6 -32 -8 -53 -3 -28 -1 -36 9
-33 18 7 16 -15 -3 -43 -23 -32 -84 -56 -207 -80 -192 -38 -231 -54 -300 -124
-58 -59 -118 -147 -100 -147 4 0 24 23 43 51 19 29 51 62 70 75 43 27 196 66
267 68 28 0 50 3 47 7 -2 4 22 17 53 30 71 29 185 134 220 203 23 46 25 58 20
141 -4 52 -17 126 -32 175 -28 93 -41 194 -31 234 9 35 66 51 133 36 82 -19
233 -104 233 -132 0 -6 -10 -3 -22 8 -64 55 -129 87 -215 107 -51 13 -63 12
-87 0 -15 -8 -25 -17 -22 -20 3 -3 12 0 20 6 11 9 16 9 21 0 4 -6 3 -14 -3
-18 -7 -4 -7 -18 -2 -41 9 -33 9 -33 7 -4 -3 27 0 30 20 26 22 -4 23 -9 23
-83 0 -72 2 -79 20 -79 17 0 20 -7 20 -40 0 -33 3 -40 20 -40 18 0 20 -7 20
-80 0 -73 2 -80 20 -80 18 0 20 -7 20 -80 0 -73 2 -80 20 -80 18 0 20 -7 22
-82 0 -46 1 -91 0 -100 -1 -10 2 -18 6 -18 4 0 16 -16 26 -35 16 -29 25 -35
55 -36 20 -1 28 -3 19 -6 -32 -8 -113 -52 -97 -52 8 -1 19 3 25 8 14 13 67 24
59 11 -3 -5 -17 -10 -31 -10 -24 0 -28 -7 -24 -48 1 -21 -2 -23 -36 -20 -31 3
-37 0 -40 -19 -4 -24 11 -40 21 -23 4 6 2 17 -4 24 -8 9 -7 13 4 13 8 0 15 -7
15 -16 0 -12 3 -12 12 -3 7 7 19 12 27 12 8 0 -3 -15 -25 -35 -28 -25 -34 -34
-21 -35 10 0 17 -8 17 -20 0 -15 -7 -20 -25 -20 -20 0 -25 -5 -25 -25 0 -20 5
-25 25 -25 20 0 25 5 25 25 0 27 26 35 48 13 9 -9 8 -14 -4 -23 -13 -9 -13
-11 5 -11 11 0 17 5 14 11 -4 5 -3 7 1 3 4 -3 7 -81 6 -171 -1 -126 2 -166 12
-171 7 -3 0 -2 -17 1 -27 6 -29 5 -17 -10 8 -9 10 -22 6 -28 -5 -9 -10 -7 -15
7 -6 12 -6 5 -3 -17 5 -34 4 -36 -19 -32 -14 3 -30 -2 -41 -12 -18 -18 -13
-35 10 -35 8 0 14 -6 14 -14 0 -8 4 -16 9 -18 5 -1 2 -19 -6 -38 -9 -19 -18
-44 -20 -54 -2 -11 -6 -22 -10 -25 -3 -3 -4 3 -1 15 3 11 0 28 -6 36 -9 13
-11 8 -11 -23 0 -22 3 -39 7 -39 5 0 8 -5 8 -11 0 -5 -4 -8 -9 -5 -5 3 -8 -17
-8 -45 1 -28 3 -46 5 -41 1 5 11 8 20 5 15 -3 17 -18 14 -128 -3 -116 -5 -125
-23 -125 -17 0 -19 -7 -19 -80 0 -73 -2 -80 -20 -80 -18 0 -20 -7 -20 -80 0
-73 -2 -80 -20 -80 -17 0 -20 -7 -20 -40 0 -33 -3 -40 -20 -40 -18 0 -20 -7
-20 -80 0 -73 -2 -80 -20 -80 -17 0 -20 -7 -20 -40 0 -33 -3 -40 -20 -40 -17
0 -20 -7 -20 -40 0 -33 -3 -40 -20 -40 -11 0 -20 -6 -20 -12 0 -8 -3 -9 -8 -3
-4 6 -20 11 -37 11 -16 1 -24 -1 -17 -3 6 -3 12 -15 12 -28 0 -34 10 -54 23
-49 9 3 12 -22 12 -88 l0 -93 -45 -15 c-25 -8 -48 -19 -52 -25 -5 -7 -8 -7 -8
0 0 6 -5 3 -10 -5 -8 -12 -10 -12 -10 -1 0 11 -3 11 -15 1 -11 -10 -18 -9 -30
4 -9 9 -17 16 -18 16 -1 0 0 -25 1 -55 3 -46 7 -55 23 -55 16 0 19 -7 19 -40
l0 -40 -60 0 -60 0 0 -40 c0 -33 -3 -40 -20 -40 -13 0 -20 -7 -20 -20 0 -17
-7 -20 -44 -20 l-45 0 11 -30 c9 -27 7 -35 -18 -67 -26 -34 -28 -43 -27 -122
1 -57 5 -87 13 -89 16 -6 79 65 87 97 3 13 1 52 -6 86 -6 34 -11 69 -11 76 0
25 20 -14 21 -41 0 -23 1 -23 9 -5 6 15 9 16 9 4 1 -9 -2 -19 -6 -23 -8 -7 -5
-79 4 -110 3 -12 1 -16 -6 -12 -6 4 -11 3 -11 -3 0 -5 -14 -22 -30 -38 -16
-15 -30 -33 -30 -40 0 -7 -6 -10 -13 -8 -7 3 -28 -3 -48 -13 -21 -11 -44 -15
-55 -12 -10 4 -23 2 -27 -4 -5 -6 -6 1 -3 16 4 16 1 28 -6 30 -12 4 -3 28 11
28 5 0 13 -15 19 -32 l10 -33 1 40 c1 60 -10 116 -23 112 -6 -2 -12 -12 -14
-23 -8 -52 -16 -68 -52 -104 -22 -22 -40 -44 -40 -48 0 -4 -11 -8 -24 -8 -14
0 -24 2 -23 6 3 12 -15 50 -23 50 -27 0 -57 -26 -73 -63 -20 -48 -21 -57 -7
-57 5 0 7 7 3 15 -3 9 -2 15 3 14 23 -4 32 3 27 20 -3 11 4 28 17 41 l21 21
22 -42 c22 -42 54 -69 40 -33 -4 12 -3 15 6 10 6 -4 9 -16 6 -27 -6 -19 -3
-21 37 -23 10 -1 17 -5 17 -11 0 -5 8 -13 18 -17 12 -6 8 -6 -11 -3 -25 5 -28
4 -23 -14 3 -14 0 -21 -9 -21 -8 0 -11 6 -8 15 4 10 0 15 -14 15 -23 0 -67 42
-90 85 -8 16 -17 24 -19 18 -3 -7 3 -20 11 -29 19 -18 21 -31 4 -16 -9 7 -17
5 -28 -6 -13 -14 -12 -15 3 -9 31 12 30 -15 -2 -42 -35 -30 -38 -38 -14 -43
15 -3 15 -5 -3 -22 -19 -20 -19 -20 -22 2 -3 19 -7 17 -43 -19 -32 -32 -39
-46 -39 -79 l0 -40 -80 0 -80 0 0 -40 0 -40 -40 0 c-33 0 -40 -3 -40 -20 0
-17 -7 -20 -40 -20 l-40 0 0 -40 c0 -40 0 -40 -39 -40 -34 0 -42 5 -65 40 -15
23 -38 46 -51 52 -14 6 -25 15 -25 20 0 4 -6 8 -13 8 -10 0 -10 -17 -3 -80 7
-55 14 -80 23 -80 7 0 13 -9 13 -20 0 -18 -6 -20 -57 -19 -32 1 -50 3 -40 6 9
2 17 8 17 13 0 5 -17 2 -37 -5 -21 -8 -56 -17 -78 -21 l-40 -7 50 -8 c30 -5
52 -4 56 2 3 6 15 6 29 1 22 -8 20 -9 -18 -16 -33 -5 -42 -11 -42 -26 0 -17
-7 -20 -40 -20 -33 0 -40 -3 -40 -20 0 -17 -7 -20 -40 -20 -33 0 -40 -3 -40
-20 0 -17 -7 -20 -40 -20 -33 0 -40 -3 -40 -20 0 -17 -7 -20 -40 -20 -33 0
-40 -3 -40 -20 0 -18 -7 -20 -79 -20 -44 0 -81 -4 -83 -9 -2 -5 -21 -5 -43 -1
-22 4 -30 8 -18 9 12 0 35 12 50 26 l28 26 -57 -27 c-52 -25 -56 -29 -47 -51
19 -50 15 -53 -71 -53 -73 0 -80 -2 -80 -20 0 -12 -7 -20 -16 -20 -8 0 -22 -6
-30 -14 -16 -17 -19 -46 -4 -46 6 0 10 9 10 20 0 22 15 27 25 9 11 -16 -34
-54 -48 -40 -6 6 -20 11 -31 11 -11 0 -30 10 -43 22 -13 12 -23 17 -23 12 0
-11 30 -39 51 -47 9 -3 5 -6 -8 -6 -13 -1 -27 8 -33 19 -9 17 -21 20 -90 20
-73 0 -80 -2 -80 -20 0 -19 -7 -20 -120 -20 -115 0 -120 -1 -120 -21 0 -21 0
-21 -319 -18 l-320 4 -12 -45 c-7 -24 -13 -61 -13 -81 -1 -47 -11 -57 -27 -27
-6 12 -39 56 -72 97 l-60 74 6 60 c5 59 58 186 96 231 9 11 11 16 4 12 -12 -6
-73 -92 -73 -102 0 -2 -9 -24 -20 -48 -17 -34 -20 -59 -18 -117 2 -41 7 -72
12 -71 5 2 13 -2 17 -10 15 -23 10 -28 -12 -10 -22 19 -49 75 -48 101 0 12 2
11 9 -4 7 -17 9 -16 9 10 1 28 -17 72 -20 50 -1 -5 -5 4 -9 20 -6 22 -7 13 -6
-35 l1 -65 -42 -3 c-32 -2 -44 -8 -48 -23 -12 -36 -16 -13 -6 30 5 22 5 39 1
36 -10 -6 -32 20 -23 29 4 3 -4 5 -18 3 -16 -3 -24 -11 -23 -23 0 -17 -7 -19
-83 -16 -78 3 -83 2 -83 -17 0 -18 -6 -21 -40 -21 l-40 0 0 40 0 40 -40 0
c-33 0 -40 3 -40 20 0 18 -7 20 -80 20 -73 0 -80 2 -80 20 0 17 -7 20 -40 20
-33 0 -40 3 -40 20 0 17 -7 20 -40 20 -33 0 -40 -3 -40 -20 0 -17 -7 -20 -40
-20 l-40 0 0 60 0 60 -80 0 c-73 0 -80 2 -80 20 0 17 -7 20 -40 20 -33 0 -40
3 -40 20 0 17 -7 20 -40 20 l-40 0 0 40 0 40 -40 0 c-34 0 -40 3 -40 21 0 19
-5 20 -57 18 l-58 -3 3 85 c2 55 9 92 19 108 14 22 14 24 -2 18 -9 -4 -18 -7
-21 -7 -2 0 -1 -7 2 -15 4 -8 1 -15 -6 -15 -6 0 -8 -4 -5 -10 3 -5 3 -26 -1
-45 -5 -29 -9 -33 -20 -24 -11 9 -14 7 -15 -12 -1 -13 -1 -27 -1 -30 1 -3 -10
-4 -24 -1 -26 5 -134 -43 -134 -59 0 -6 -5 -7 -10 -4 -7 4 -7 12 0 25 5 10 10
37 10 59 0 46 23 69 95 97 25 9 42 20 40 25 -3 4 3 12 12 18 20 11 16 13 -39
25 -39 9 -35 -1 5 -13 l32 -9 -35 -2 c-29 -1 -32 -3 -15 -10 14 -6 16 -9 5
-10 -8 -2 -19 -2 -24 -1 -4 1 -14 -3 -22 -10 -10 -8 -19 -7 -36 5 -12 9 -39
16 -60 16 -38 0 -38 0 -38 40 l0 40 -40 0 c-25 0 -40 -5 -41 -12 0 -7 -4 -4
-9 7 -11 25 -12 44 -2 28 4 -6 7 23 8 65 1 46 -2 69 -7 57 -6 -16 -8 -17 -8
-3 -1 9 -6 20 -12 24 -8 4 -9 -1 -4 -17 4 -13 11 -25 16 -27 4 -2 -1 -18 -12
-36 -10 -18 -20 -52 -22 -74 -1 -23 -7 -44 -13 -46 -7 -3 -10 6 -8 22 2 17 -7
42 -23 64 -29 42 -27 85 6 128 17 21 21 22 36 10 14 -12 16 -10 12 16 -4 33
-29 39 -38 9 -3 -11 -12 -19 -21 -19 -8 1 -15 -4 -15 -10 0 -6 -1 -22 -2 -36
l-2 -25 -10 24 c-5 14 -7 32 -4 40 3 11 0 9 -10 -3 -13 -17 -15 -18 -15 -3 0
13 -9 17 -39 17 -38 0 -59 19 -45 41 3 5 0 17 -6 26 -10 16 -11 16 -5 -2 5
-16 3 -17 -6 -8 -14 13 -16 58 -5 88 4 12 1 10 -8 -5 -14 -22 -22 -16 -17 12
0 5 -5 7 -11 5 -7 -1 -14 8 -16 21 -3 18 -10 22 -43 22 -32 0 -39 3 -39 20 0
13 -7 20 -20 20 -17 0 -20 7 -20 40 0 33 -3 40 -20 40 -11 0 -38 18 -60 40
-33 33 -47 40 -80 40 l-40 0 0 80 c0 73 -2 80 -20 80 -17 0 -20 7 -20 39 0 30
-4 40 -19 44 -12 3 -19 13 -18 25 1 13 6 18 15 14 11 -4 11 1 -3 21 -10 15
-22 24 -31 20 -8 -3 -14 0 -14 7 0 6 5 8 10 5 6 -4 10 11 10 37 0 24 3 54 6
68 l5 25 -15 -25 c-8 -14 -13 -34 -10 -45 4 -16 1 -14 -11 5 l-15 25 6 -29 c5
-21 4 -27 -5 -22 -6 4 -11 24 -11 44 0 46 -24 82 -53 82 -12 0 -29 5 -37 10
-11 7 -4 10 28 10 31 0 42 4 42 15 0 12 -8 14 -40 9 -27 -4 -40 -3 -40 5 0 6
-9 11 -20 11 -16 0 -20 7 -20 38 0 21 -5 43 -12 50 -9 9 -9 12 0 12 7 0 12 -4
12 -8 0 -5 14 -7 30 -4 32 4 43 23 13 20 -10 -1 -33 0 -50 0 -28 2 -33 6 -33
26 0 13 10 30 23 39 12 8 19 18 16 21 -3 3 -15 -3 -27 -14 -42 -39 -52 -28
-52 60 0 73 -2 80 -20 80 -17 0 -20 7 -20 40 0 33 -3 40 -20 40 -18 0 -20 7
-20 80 0 79 0 80 -26 80 -24 0 -25 2 -19 39 5 29 2 42 -10 55 -12 11 -14 21
-7 29 5 7 14 26 20 42 6 17 11 22 11 13 1 -10 6 -18 12 -18 7 0 8 7 4 18 -3 9
-14 44 -23 77 -9 33 -20 63 -26 67 -6 4 -3 24 8 52 10 25 15 54 13 63 -3 11
-5 8 -6 -9 0 -16 -5 -28 -11 -28 -5 0 -10 -7 -10 -16 0 -8 -4 -13 -9 -9 -5 3
-7 21 -4 40 3 21 2 35 -5 35 -13 0 -13 -408 0 -416 11 -7 10 -34 -2 -34 -5 0
-10 7 -10 15 0 25 -27 17 -52 -14 -13 -17 -45 -46 -72 -67 -49 -37 -65 -36
-66 7 0 9 -14 77 -30 150 -29 125 -29 134 -13 143 10 5 43 34 74 65 60 59 98
122 104 172 2 17 9 37 15 44 17 21 8 59 -17 70 -27 12 -30 23 -5 21 9 0 24
-10 33 -21 27 -32 89 -25 89 10 0 6 -5 3 -10 -5 -8 -13 -10 -13 -10 2 0 9 -5
20 -10 23 -7 4 -9 -3 -5 -22 5 -23 4 -25 -5 -10 -6 9 -8 27 -4 39 6 20 8 20
19 5 15 -21 25 -22 25 -1 0 8 -4 13 -9 9 -5 -3 -12 -2 -15 3 -8 13 71 44 96
38 13 -3 17 -3 10 0 -6 3 -10 10 -7 14 8 13 -82 -15 -103 -32 -26 -20 -32 -31
-32 -63 0 -28 -1 -29 -14 -9 -29 41 -24 66 20 99 l41 32 -29 0 c-16 0 -27 -5
-25 -11 2 -6 -7 -19 -20 -29 -13 -10 -23 -28 -23 -40 0 -16 -3 -18 -9 -9 -10
17 9 62 27 62 6 0 12 6 12 14 0 8 -8 13 -17 12 -17 -1 -18 21 -21 322 -1 215
-6 322 -13 322 -5 0 -7 5 -4 10 5 8 11 7 21 -1 12 -10 13 -9 8 4 -6 17 33 31
119 43 54 8 192 -11 243 -32 20 -8 37 -14 39 -12 1 2 6 29 9 60 10 75 3 78
-169 78 -77 0 -134 4 -131 9 3 5 -11 0 -32 -10 -22 -11 -51 -40 -72 -71 -19
-28 -42 -54 -50 -56 -8 -3 -2 9 13 27 15 18 27 38 27 45 0 7 9 21 21 32 19 17
19 19 2 26 -15 7 -14 8 5 4 23 -4 32 17 12 29 -5 3 -10 35 -10 71 0 57 2 64
20 64 19 0 20 7 20 120 0 113 1 120 20 120 17 0 20 7 20 40 0 33 3 40 20 40
17 0 20 7 20 50 0 35 5 55 18 68 25 25 11 36 -80 57 -70 17 -77 20 -82 47 -3
16 -10 27 -16 23 -5 -3 -7 0 -4 9 7 18 -20 72 -43 85 -32 17 -8 21 71 11 82
-10 111 -29 136 -89 7 -19 18 -28 28 -26 9 2 25 4 35 4 15 1 17 12 17 81 0 74
2 80 20 80 11 0 23 -7 26 -15 8 -20 40 -19 48 1 5 12 14 14 34 10 21 -5 24 -4
12 4 -13 9 -12 11 5 9 33 -2 41 1 25 11 -13 8 -13 10 1 10 9 0 19 7 23 15 3 8
1 15 -4 15 -6 0 -10 -4 -10 -8 0 -4 -17 -14 -38 -21 -20 -7 -47 -23 -59 -34
l-23 -20 0 24 c1 84 31 128 103 151 41 12 54 48 17 48 -18 0 -20 7 -20 60 l0
60 40 0 40 0 0 40 c0 33 -3 40 -20 40 -17 0 -20 7 -20 40 l0 40 60 0 60 0 0
40 c0 33 3 40 20 40 17 0 20 7 20 40 l0 40 48 0 c44 0 72 -12 72 -32 0 -4 -4
-8 -10 -8 -5 0 -10 8 -10 17 0 11 -3 14 -10 7 -6 -6 -6 -21 -1 -39 6 -20 10
-23 10 -11 1 20 1 20 15 0 8 -10 18 -16 22 -11 4 4 2 7 -4 7 -7 0 -12 5 -12
10 0 7 6 7 19 0 31 -16 38 -11 12 9 -18 14 -25 30 -27 61 -2 39 -6 45 -49 72
-26 16 -49 27 -52 24 -3 -3 1 -8 10 -12 9 -3 13 -12 10 -20 -3 -8 -9 -11 -14
-8 -5 3 -7 9 -4 14 3 5 1 11 -5 15 -6 4 -8 10 -6 14 8 12 -49 62 -65 59 -8 -2
-13 3 -11 11 1 7 -2 19 -8 26 -11 14 -17 11 125 63 165 61 149 60 205 8 27
-25 51 -46 53 -46 3 0 2 40 -2 72 -1 4 -9 5 -18 2 -15 -5 -15 -4 -3 4 8 6 18
8 22 6 4 -3 8 15 8 40 l0 46 40 0 40 0 0 40 0 40 40 0 40 0 0 40 0 40 40 0 40
0 0 40 0 40 40 0 c33 0 40 3 40 20 0 17 7 20 40 20 l40 0 0 40 0 40 40 0 40 0
0 60 0 60 80 0 c73 0 80 2 80 20 0 17 7 20 40 20 33 0 40 3 40 20 0 17 7 20
40 20 33 0 40 3 40 20 0 17 7 20 40 20 l40 0 0 40 0 40 80 0 80 0 0 40 0 40
83 0 84 0 -1 -95 c-1 -51 2 -91 6 -87 8 9 15 122 7 122 -3 0 -4 24 -2 53 3 38
2 48 -6 37 -7 -10 -11 -11 -11 -2 0 9 -92 12 -426 12 -364 0 -425 -2 -421 -14
8 -21 -17 -28 -120 -33 -92 -6 -92 -6 -104 21 l-12 26 -873 0 -874 0 37 -33
c36 -34 36 -34 37 -120 1 -82 0 -86 -19 -81 -81 25 -98 55 -93 162 l3 72 -927
0 -928 0 0 -256z m3373 207 c5 -5 -11 -36 -38 -72 l-46 -63 -98 -1 c-68 0
-103 -4 -114 -14 -25 -20 -21 0 15 74 30 60 37 67 78 80 48 16 186 13 203 -4z
m-2271 -49 c32 -6 40 -14 67 -65 17 -33 28 -63 25 -68 -3 -5 5 -13 18 -18 17
-7 18 -10 6 -10 -10 -1 -15 -6 -12 -15 10 -26 -99 -35 -145 -12 -48 25 -103
96 -131 171 l-10 25 73 -1 c39 0 89 -3 109 -7z m9871 -51 c-3 -31 -1 -51 6
-55 6 -4 11 -15 11 -26 0 -46 43 -153 77 -191 41 -46 44 -45 -101 -25 -91 13
-100 17 -127 48 -16 18 -36 45 -44 61 -9 15 -20 27 -25 27 -5 0 -8 8 -8 18 1
9 -5 45 -13 79 -7 34 -10 66 -6 69 4 4 25 1 47 -6 45 -15 92 -5 145 29 17 11
33 20 37 20 4 1 4 -21 1 -48z m-2678 29 c3 -6 -1 -7 -9 -4 -18 7 -21 14 -7 14
6 0 13 -4 16 -10z m968 -36 c27 -8 21 -35 -29 -133 -59 -115 -64 -119 -109
-91 -19 12 -35 25 -35 29 0 4 13 32 29 62 16 30 35 73 41 96 12 38 15 41 49
41 20 1 44 -1 54 -4z m-1286 -10 c-3 -3 -12 -4 -19 -1 -8 3 -5 6 6 6 11 1 17
-2 13 -5z m-5318 -168 l43 -104 -25 -61 c-14 -34 -22 -63 -18 -65 4 -3 20 -29
35 -60 27 -53 28 -57 26 -228 -1 -224 -2 -229 -28 -265 l-22 -31 65 -18 c55
-16 65 -22 65 -41 0 -16 6 -23 20 -23 24 0 26 -13 5 -30 -11 -9 -12 -17 -4
-32 6 -11 13 -40 14 -65 l4 -44 -67 6 c-53 6 -73 13 -95 34 -44 40 -75 100
-90 172 -8 36 -23 83 -35 105 -11 21 -39 79 -62 127 l-41 88 41 46 c40 46 108
169 98 179 -3 2 -19 -7 -36 -21 -17 -14 -33 -22 -35 -18 -2 5 -17 59 -31 121
l-27 112 51 50 c49 48 89 116 90 153 0 39 19 12 59 -87z m5765 78 c9 -24 2
-26 -12 -4 -7 11 -8 20 -3 20 5 0 12 -7 15 -16z m26 -54 c6 -11 7 -20 2 -20
-6 0 -12 9 -15 20 -3 11 -3 20 -1 20 2 0 8 -9 14 -20z m-7440 0 c20 -11 70
-88 70 -108 0 -8 -19 -12 -50 -12 -47 0 -51 2 -64 33 -7 17 -25 43 -40 57 -24
22 -25 25 -9 31 27 11 72 10 93 -1z m8096 -106 c2 -47 -4 -64 -22 -64 -7 0
-30 -16 -49 -36 -20 -20 -38 -34 -39 -32 -12 13 -14 95 -3 109 18 24 89 70
101 66 6 -2 12 -21 12 -43z m-7416 -81 c0 -7 -4 -13 -8 -13 -17 0 -29 22 -24
42 5 20 6 20 19 3 7 -11 13 -25 13 -32z m-890 -60 c0 -24 -19 -73 -29 -73 -3
0 -14 14 -24 31 -17 30 -17 33 0 70 l18 38 17 -22 c10 -12 18 -32 18 -44z
m2527 51 c1 -4 10 -11 20 -15 15 -6 14 -8 -7 -8 -21 -1 -22 -3 -10 -12 12 -9
11 -10 -7 -6 -13 3 -23 1 -23 -4 0 -5 -10 -9 -22 -8 -21 0 -22 1 -4 8 19 7 19
8 -2 13 -11 3 -23 1 -25 -6 -2 -6 -8 -8 -12 -4 -5 5 -1 16 8 26 10 10 14 21
11 25 -3 3 11 4 33 3 21 -2 39 -7 40 -12z m6601 -18 c44 -23 80 -53 71 -59 -2
-2 -25 -14 -51 -27 l-46 -24 -51 28 c-28 15 -64 29 -79 31 -15 2 -29 4 -31 4
-2 1 16 17 40 35 53 42 83 44 147 12z m-8649 -11 c13 -13 32 -91 24 -99 -3 -3
-20 2 -38 11 -25 12 -34 24 -38 47 -2 17 -8 40 -12 50 -7 17 -5 18 21 12 16
-4 35 -13 43 -21z m8141 -45 c43 -38 44 -39 26 -59 l-19 -21 -34 30 c-18 16
-45 33 -58 36 -30 7 -30 9 -7 33 25 28 42 25 92 -19z m1429 -36 c2 -80 -6 -88
-35 -33 -16 32 -12 63 14 92 8 9 16 17 17 17 0 0 2 -34 4 -76z m-7604 38 c-3
-3 -11 0 -18 7 -9 10 -8 11 6 5 10 -3 15 -9 12 -12z m-2647 -78 c-1 -30 -4
-54 -6 -54 -3 0 -14 7 -24 17 -12 11 -18 30 -18 63 0 55 7 66 31 44 13 -12 17
-30 17 -70z m7872 56 c-8 -6 -28 -9 -45 -8 l-30 1 30 4 c17 3 34 9 39 14 5 5
12 6 15 3 3 -3 -1 -9 -9 -14z m-5225 2 c9 -6 35 -56 35 -67 0 -3 -11 -5 -26
-5 -19 0 -28 8 -40 35 -7 19 -14 37 -14 40 0 8 33 6 45 -3z m6368 -3 c-22 -50
-29 -58 -54 -63 -16 -3 -36 -3 -44 -1 -51 16 -50 14 -22 43 23 24 34 28 74 26
27 -1 47 -4 46 -5z m-6244 -97 c6 -11 7 -23 3 -27 -4 -5 1 -5 10 -2 12 4 15 2
12 -8 -3 -7 2 -28 11 -45 l17 -33 -39 7 c-64 11 -87 25 -110 66 -33 57 -28 63
8 9 24 -38 38 -49 72 -57 23 -6 43 -10 44 -8 2 1 -8 25 -22 52 -14 28 -27 72
-30 100 l-4 49 9 -42 c5 -23 13 -51 19 -61z m7819 13 c29 -9 52 -19 52 -23 0
-4 -24 -31 -53 -60 l-52 -52 -50 16 c-30 9 -73 14 -107 12 l-57 -4 41 57 c22
32 48 60 57 62 37 10 121 6 169 -8z m-7757 -64 c6 10 8 7 6 -9 -2 -26 -21 -24
-24 4 -2 11 0 14 3 5 5 -11 8 -11 15 0z m-2196 -67 c59 -17 98 -18 144 -4 19
5 36 8 38 6 5 -4 -81 -130 -110 -163 -15 -17 -17 -26 -9 -35 9 -12 6 -98 -4
-98 -17 0 -54 48 -54 70 0 26 -1 27 -54 22 -55 -4 -142 11 -182 32 -21 10 -18
16 65 103 59 64 91 91 101 87 8 -4 37 -13 65 -20z m1845 -3 c0 -5 -9 -29 -20
-54 -16 -35 -28 -48 -60 -61 -49 -19 -110 -21 -109 -3 0 6 13 32 28 57 25 41
31 45 72 48 24 2 48 7 54 13 11 11 35 12 35 0z m7043 -14 c23 -13 59 -29 80
-36 39 -13 44 -20 25 -39 -8 -8 -8 -15 2 -27 11 -14 8 -22 -26 -56 l-39 -41
-75 4 c-70 4 -139 30 -209 77 -10 7 11 25 85 75 55 36 103 65 107 66 5 0 27
-11 50 -23z m-1369 -33 c3 -9 -1 -14 -14 -14 -13 0 -20 7 -20 20 0 22 25 18
34 -6z m-8569 -12 c6 -4 11 -16 12 -27 1 -11 4 -32 7 -47 7 -38 -11 -36 -19 2
-3 16 -15 41 -26 55 -19 24 -19 25 -2 25 10 0 23 -4 28 -8z m1753 -7 c2 -2 -2
-40 -10 -84 l-13 -81 -165 -3 c-145 -4 -173 -7 -232 -29 -76 -29 -145 -79
-154 -113 -7 -28 17 -76 65 -131 l36 -41 32 24 c23 18 33 21 34 12 1 -8 3 -24
4 -36 2 -16 -2 -20 -16 -18 -11 2 -24 7 -29 10 -6 3 -10 4 -10 1 0 -3 44 -40
98 -82 120 -95 194 -171 224 -232 19 -39 23 -63 23 -144 0 -86 2 -98 17 -98
11 0 15 5 12 14 -9 23 78 16 105 -8 11 -10 27 -16 34 -13 8 3 31 35 53 71 l38
66 71 0 c38 1 88 7 110 15 21 8 40 13 42 11 1 -1 -9 -33 -23 -69 -30 -78 -54
-95 -140 -104 l-54 -6 34 -26 c59 -45 67 -68 65 -186 -1 -58 1 -109 5 -112 28
-28 -19 -29 -138 -3 -92 20 -106 29 -106 67 0 16 -11 26 -40 39 -44 20 -48 30
-25 75 15 28 14 31 -14 72 -16 24 -36 49 -45 56 -14 12 -16 11 -16 -6 0 -77
-62 -185 -180 -314 -99 -109 -143 -165 -169 -216 -19 -37 -20 -53 -15 -126 5
-56 3 -86 -4 -91 -29 -18 -27 154 3 267 17 66 80 166 150 242 212 228 234 277
171 391 -36 65 -78 110 -194 204 -128 103 -186 164 -214 225 -20 44 -23 64
-22 180 1 111 4 136 22 171 61 120 229 179 472 167 58 -2 107 -6 108 -8z
m1532 -20 c13 -14 20 -25 16 -25 -4 0 -19 11 -34 25 -15 14 -22 25 -16 25 6 0
21 -11 34 -25z m5325 16 c3 -5 0 -13 -6 -17 -8 -5 -8 -9 1 -14 9 -5 9 -9 1
-14 -6 -4 -11 -2 -11 3 0 6 -7 11 -15 11 -8 0 -15 5 -15 10 0 6 -7 10 -16 10
-12 0 -14 -4 -7 -12 13 -17 25 -78 15 -78 -22 0 -52 34 -52 59 0 22 6 30 25
35 14 4 35 1 47 -5 18 -10 20 -9 15 5 -7 17 8 23 18 7z m-8253 -65 c3 -28 -2
-40 -28 -65 l-31 -31 -11 26 c-7 14 -12 27 -12 29 0 8 62 75 70 75 4 0 10 -15
12 -34z m2638 -130 c-12 -12 -30 2 -24 19 5 11 9 12 19 2 7 -7 10 -16 5 -21z
m-1533 -68 l1 -83 -24 30 c-26 33 -29 56 -13 104 20 57 35 37 36 -51z m1523
34 c0 -1 -9 2 -20 8 -11 6 -20 15 -20 20 0 6 9 2 20 -7 11 -10 20 -19 20 -21z
m8010 23 c0 -25 -34 -77 -55 -85 -31 -12 -125 -13 -125 -2 0 4 11 24 25 43 23
30 32 35 83 40 31 3 60 6 65 7 4 1 7 0 7 -3z m-8350 -46 c0 -22 -12 -24 -39
-7 -18 11 -18 13 -3 24 21 15 42 7 42 -17z m468 -20 c-10 -7 -10 -9 0 -9 6 0
12 -4 12 -9 0 -12 -49 -11 -57 2 -8 14 25 37 44 30 12 -5 12 -7 1 -14z m-423
-9 c-27 -12 -43 -12 -25 0 8 5 22 9 30 9 10 0 8 -3 -5 -9z m-1224 -106 c20
-10 28 -24 33 -55 4 -23 9 -45 11 -49 2 -4 28 -1 57 6 82 22 113 18 152 -17
19 -17 45 -46 57 -66 28 -45 17 -53 -73 -53 -64 0 -68 2 -82 28 -26 50 -67 79
-121 87 -28 3 -56 9 -62 13 -18 12 -43 70 -43 102 0 28 2 31 23 24 12 -3 34
-13 48 -20z m8559 -12 c65 -32 96 -82 86 -135 -8 -39 -36 -78 -43 -59 -8 20
-74 50 -142 62 -71 13 -140 7 -253 -21 -42 -10 -80 -19 -85 -19 -4 0 -8 35 -8
77 l0 77 59 18 c148 45 296 45 386 0z m-8114 3 c10 -8 27 -15 37 -15 25 0 21
-15 -8 -34 -27 -18 -52 -15 -94 11 l-23 15 28 19 c35 23 35 23 60 4z m7144
-14 c0 -12 -20 -25 -27 -18 -7 7 6 27 18 27 5 0 9 -4 9 -9z m17 -36 c-9 -8
-26 -14 -39 -14 -22 2 -22 2 -1 6 12 2 27 11 34 19 6 8 14 12 17 10 2 -3 -3
-12 -11 -21z m43 -34 c0 -38 -25 -60 -38 -34 -12 23 2 63 23 63 10 0 15 -10
15 -29z m-86 -7 c3 -8 2 -12 -4 -9 -6 3 -10 10 -10 16 0 14 7 11 14 -7z m19
-29 c-3 -9 -8 -14 -10 -11 -3 3 -2 9 2 15 9 16 15 13 8 -4z m-7048 -95 c24
-48 24 -50 6 -60 -17 -8 -23 -4 -45 36 -31 55 -31 61 -8 67 9 3 18 5 19 6 2 0
14 -21 28 -49z m8239 -66 c4 -10 1 -14 -6 -12 -15 5 -23 28 -10 28 5 0 13 -7
16 -16z m-7735 -5 c36 -13 38 -20 13 -42 -16 -14 -23 -15 -53 -5 -47 17 -47
17 -19 38 30 23 21 22 59 9z m7504 -41 c-11 -15 -11 -68 -1 -84 4 -6 -25 -45
-68 -90 l-75 -79 2 70 1 70 65 63 c35 34 69 62 75 62 7 0 7 -4 1 -12z m-7536
-24 c-3 -3 -12 -4 -19 -1 -8 3 -5 6 6 6 11 1 17 -2 13 -5z m343 -22 c0 -11
-12 -22 -32 -30 -24 -9 -29 -9 -20 0 7 7 12 20 12 30 0 11 7 18 20 18 13 0 20
-7 20 -18z m-74 -46 c-1 -11 -8 -22 -16 -24 -13 -5 -13 -3 -1 11 8 10 9 17 3
17 -6 0 -16 -8 -21 -17 -10 -17 -10 -17 -11 0 0 9 6 17 13 17 8 0 8 3 -2 9
-10 7 -7 9 11 8 18 -2 25 -7 24 -21z m6414 14 c0 -5 -2 -10 -4 -10 -3 0 -8 5
-11 10 -3 6 -1 10 4 10 6 0 11 -4 11 -10z m-8418 -43 c15 -11 30 -33 33 -48 7
-31 -12 -139 -24 -139 -4 0 -24 18 -46 40 -35 36 -37 42 -27 65 7 14 12 46 12
71 0 48 0 48 52 11z m9820 -11 c7 4 9 3 5 -1 -4 -5 27 -44 69 -86 73 -74 78
-80 85 -136 5 -32 6 -76 2 -98 -6 -43 -60 -192 -72 -199 -11 -7 -186 214 -184
232 1 9 14 51 29 92 23 64 26 86 21 148 -5 72 -5 73 13 57 11 -10 24 -14 32
-9z m-7849 -51 c-7 -21 -12 -19 -10 4 0 11 5 18 9 15 4 -3 5 -11 1 -19z
m-1772 -115 l84 -105 -1 -65 c-1 -73 -37 -176 -87 -248 -36 -53 -31 -57 -122
98 -54 92 -65 117 -56 130 42 56 82 162 88 229 3 39 7 70 8 69 1 -2 40 -50 86
-108z m1429 51 c0 -5 -7 -11 -14 -14 -10 -4 -13 -1 -9 9 6 15 23 19 23 5z
m7264 -40 c20 -21 24 -31 15 -36 -7 -5 -10 -4 -5 3 3 6 -5 19 -19 30 -14 11
-25 23 -25 26 0 10 6 7 34 -23z m-391 12 c-7 -2 -21 -2 -30 0 -10 3 -4 5 12 5
17 0 24 -2 18 -5z m-7008 -40 c4 -21 9 -45 11 -54 2 -9 -4 -23 -15 -33 -11
-10 -25 -31 -31 -47 -13 -31 -30 -39 -30 -14 0 9 -7 29 -15 45 -11 22 -12 35
-4 57 11 29 57 83 70 83 5 0 11 -17 14 -37z m-2287 -41 c14 -22 21 -127 8
-139 -2 -3 -25 10 -50 29 -43 32 -45 35 -43 83 0 28 -3 61 -7 73 l-8 24 42
-24 c23 -12 49 -34 58 -46z m9309 62 c-3 -3 -12 -4 -19 -1 -8 3 -5 6 6 6 11 1
17 -2 13 -5z m-6857 -58 c-1 -6 -6 -1 -13 12 l-13 23 -19 -22 c-11 -11 -29
-25 -40 -30 -11 -6 -2 6 20 25 36 32 41 34 53 19 6 -9 12 -22 12 -27z m197 14
c3 -11 8 -18 12 -16 4 3 8 -5 8 -17 2 -19 0 -18 -22 8 -27 33 -31 45 -14 45 6
0 13 -9 16 -20z m7001 -45 c-25 -25 -48 -45 -51 -45 -7 0 -57 49 -57 56 0 4
13 -5 29 -20 l29 -28 37 41 c21 23 42 41 48 41 6 0 -10 -20 -35 -45z m202 -13
c49 -49 103 -64 259 -73 80 -5 169 -13 198 -19 125 -26 190 -123 149 -220
l-13 -33 -18 29 c-41 68 -126 103 -250 104 -102 0 -235 19 -273 39 -74 38
-102 88 -101 179 0 48 2 54 12 38 7 -11 23 -31 37 -44z m-7434 -29 c-20 -21
-36 -43 -36 -49 0 -6 -10 -19 -21 -30 l-22 -19 17 32 c20 39 74 103 88 103 5
0 -7 -17 -26 -37z m-83 -45 c-9 -20 -10 -20 -10 10 0 22 4 29 10 23 7 -7 7
-18 0 -33z m151 26 c3 -8 2 -12 -4 -9 -6 3 -10 10 -10 16 0 14 7 11 14 -7z
m-63 -67 c-10 -9 -11 -8 -5 6 3 10 9 15 12 12 3 -3 0 -11 -7 -18z m189 -17 c9
-16 8 -20 -5 -20 -8 0 -15 9 -15 20 0 11 2 20 5 20 2 0 9 -9 15 -20z m-2487
-34 c51 -22 54 -26 60 -66 3 -23 13 -50 23 -61 20 -22 16 -23 -51 -6 -44 11
-53 18 -72 57 -20 39 -31 100 -18 100 2 0 29 -11 58 -24z m300 -5 c-4 -3 -8
-36 -8 -73 0 -59 -3 -68 -20 -72 -27 -8 -85 -7 -85 0 0 9 61 137 72 150 5 7
18 10 29 7 11 -3 17 -9 12 -12z m10639 -103 c3 -24 8 -50 12 -60 7 -14 3 -15
-28 -8 -22 5 -38 4 -42 -2 -11 -18 -24 15 -24 60 0 38 2 43 19 37 11 -3 22 -1
26 5 15 24 33 8 37 -32z m-674 -12 c5 -6 -16 -44 -46 -83 -22 -30 -29 -33 -81
-33 -65 0 -70 -3 -95 -52 -19 -37 -36 -50 -36 -26 0 30 -22 -13 -23 -45 -1
-43 -12 -39 -55 19 -28 37 -32 50 -26 77 7 35 41 107 50 107 3 0 14 -10 24
-22 l18 -23 7 38 c4 20 10 37 14 37 7 0 32 -36 42 -59 3 -9 12 -2 27 22 24 42
66 58 131 52 25 -3 46 -7 49 -9z m-9325 -129 c42 -25 127 -103 127 -116 0 -3
-54 -24 -119 -46 l-119 -39 -39 35 c-56 50 -103 77 -164 92 l-54 14 110 55
109 55 52 -12 c29 -6 72 -24 97 -38z m9351 4 c-3 -47 -13 -68 -50 -101 -21
-20 -26 -21 -21 -7 4 10 7 32 7 47 0 18 12 43 31 65 17 19 32 35 34 35 1 0 1
-18 -1 -39z m417 9 c22 -12 27 -70 6 -70 -21 0 -37 22 -37 52 0 31 3 33 31 18z
m-9214 -112 c6 -5 13 -40 15 -79 3 -59 1 -69 -14 -69 -32 0 -78 93 -78 157 0
20 2 21 33 11 17 -6 37 -15 44 -20z m-1187 -113 c60 -160 58 -148 45 -193 -19
-64 -58 -122 -120 -181 -41 -39 -53 -56 -44 -62 11 -6 9 -19 -5 -66 -18 -59
-91 -223 -99 -223 -12 0 -97 53 -95 59 41 76 78 195 78 250 0 36 4 37 55 16
35 -15 36 -15 31 2 -3 10 -17 66 -31 125 l-26 107 64 63 c44 44 71 80 87 121
13 31 27 54 30 50 4 -5 17 -35 30 -68z m9919 -29 c15 -15 65 -40 111 -56 46
-16 88 -34 94 -40 17 -17 27 -11 16 9 -19 37 -13 44 38 37 74 -11 80 -15 93
-54 6 -20 22 -51 35 -69 13 -17 24 -34 24 -37 0 -3 -25 -6 -55 -6 -53 0 -55
-1 -55 -27 0 -15 -19 -83 -42 -150 -39 -115 -41 -124 -29 -164 17 -56 106
-151 121 -129 5 8 10 25 10 38 0 26 20 29 41 4 11 -13 14 -40 13 -109 -1 -83
-4 -96 -33 -147 -18 -31 -37 -56 -42 -56 -14 0 -11 16 6 30 22 18 18 62 -7 96
-13 16 -48 55 -79 86 -88 87 -97 145 -43 273 37 89 47 149 30 189 -17 42 -63
80 -123 101 -100 37 -152 64 -169 90 -19 29 -23 88 -10 150 l9 40 9 -36 c5
-20 22 -49 37 -63z m-8589 -7 c0 -6 -4 -7 -10 -4 -5 3 -10 11 -10 16 0 6 5 7
10 4 6 -3 10 -11 10 -16z m720 -58 c0 -6 -4 -13 -10 -16 -5 -3 -10 1 -10 9 0
9 5 16 10 16 6 0 10 -4 10 -9z m-20 -66 c0 -8 -4 -15 -10 -15 -5 0 -7 7 -4 15
4 8 8 15 10 15 2 0 4 -7 4 -15z m-1206 -44 l64 -29 -9 -38 c-12 -52 -92 -237
-114 -262 -1 -2 -89 44 -103 54 -2 1 8 24 21 51 33 64 67 177 67 219 0 19 2
34 5 34 3 0 34 -13 69 -29z m831 -53 c77 -40 161 -61 217 -55 42 5 48 4 48
-13 0 -29 -11 -51 -22 -44 -6 4 -5 10 3 15 7 4 11 10 8 13 -2 3 -46 -33 -97
-80 l-92 -86 -99 4 c-92 3 -104 6 -177 43 -43 22 -79 45 -81 50 -1 6 49 46
112 90 63 44 115 83 115 88 0 10 -1 10 65 -25z m347 -23 c-2 -25 -8 -45 -13
-45 -14 0 -11 78 4 83 6 3 12 6 12 6 0 1 -1 -19 -3 -44z m7083 14 c-10 -14 22
-47 64 -66 20 -9 38 -18 40 -20 8 -6 -42 -53 -56 -53 -17 0 -113 88 -113 104
0 6 12 19 28 28 31 20 46 23 37 7z m-7198 -25 c-3 -3 -12 -4 -19 -1 -8 3 -5 6
6 6 11 1 17 -2 13 -5z m7330 -86 c-3 -8 -6 -5 -6 6 -1 11 2 17 5 13 3 -3 4
-12 1 -19z m33 8 c0 -3 -4 -8 -10 -11 -5 -3 -10 -1 -10 4 0 6 5 11 10 11 6 0
10 -2 10 -4z m37 -18 c4 -7 8 -30 8 -50 1 -37 -8 -48 -20 -28 -3 6 -16 10 -28
10 -13 0 -17 3 -11 8 6 4 15 22 19 40 7 33 18 41 32 20z m703 -23 c31 -37 -49
-48 -87 -13 l-24 23 33 11 c35 12 55 6 78 -21z m-800 21 c0 -2 -8 -10 -17 -17
-16 -13 -17 -12 -4 4 13 16 21 21 21 13z m24 -14 c3 -5 -1 -9 -9 -9 -8 0 -12
4 -9 9 3 4 7 8 9 8 2 0 6 -4 9 -8z m1525 -134 c-10 -20 -31 -46 -46 -58 l-28
-22 -12 59 -11 58 39 42 c21 23 39 48 40 55 1 7 9 -12 19 -42 17 -53 17 -56
-1 -92z m-1599 91 c0 -6 -4 -7 -10 -4 -5 3 -10 11 -10 16 0 6 5 7 10 4 6 -3
10 -11 10 -16z m74 -4 c21 -32 22 -105 1 -105 -9 0 -12 6 -8 16 3 10 0 22 -8
28 -14 12 -39 51 -39 62 0 3 9 4 20 1 22 -6 28 8 8 16 -8 4 -9 6 -2 6 7 1 19
-10 28 -24z m252 -17 c4 -13 11 -26 16 -29 5 -3 2 -19 -7 -35 -8 -16 -15 -35
-15 -41 0 -19 -9 -16 -31 10 -23 27 -24 49 -4 87 19 36 31 38 41 8z m-139 -45
c17 -43 26 -79 17 -70 -12 11 -43 97 -35 97 3 0 11 -12 18 -27z m210 1 c6 -16
-15 -64 -28 -64 -14 0 -20 39 -9 60 13 24 28 26 37 4z m-7794 -41 c-7 -2 -19
-2 -25 0 -7 3 -2 5 12 5 14 0 19 -2 13 -5z m7414 -9 c-3 -3 -12 -4 -19 -1 -8
3 -5 6 6 6 11 1 17 -2 13 -5z m70 -10 c-3 -3 -12 -4 -19 -1 -8 3 -5 6 6 6 11
1 17 -2 13 -5z m462 -58 c-2 -46 -22 -98 -32 -85 -3 2 -7 25 -10 50 -5 38 -3
50 14 68 11 11 22 21 25 21 3 0 4 -24 3 -54z m-379 34 c0 -5 -4 -10 -9 -10 -6
0 -13 5 -16 10 -3 6 1 10 9 10 9 0 16 -4 16 -10z m447 -37 c-3 -10 -5 -2 -5
17 0 19 2 27 5 18 2 -10 2 -26 0 -35z m-8080 -131 c-1 -69 3 -94 18 -120 23
-38 42 -41 51 -7 3 14 9 25 13 25 4 0 21 -20 39 -45 26 -37 30 -49 22 -74 -4
-17 -6 -40 -3 -52 5 -17 3 -20 -8 -14 -51 30 -69 49 -75 80 -3 19 -10 33 -14
30 -5 -3 -20 0 -33 6 -38 17 -59 75 -59 163 1 84 5 96 32 96 17 0 18 -8 17
-88z m242 62 c13 -12 -8 -10 -29 2 l-25 15 25 -7 c14 -3 27 -8 29 -10z m-47
-16 c10 -5 21 -20 24 -33 3 -14 11 -25 16 -25 6 0 5 -7 -2 -16 -8 -9 -25 -14
-44 -12 -25 2 -35 11 -53 47 -12 24 -20 48 -17 53 6 9 47 1 76 -14z m7333 -18
c3 -6 -1 -7 -9 -4 -18 7 -21 14 -7 14 6 0 13 -4 16 -10z m131 -121 c-26 -50
-43 -95 -40 -101 4 -6 2 -8 -4 -4 -6 3 -13 -2 -17 -13 -5 -16 -18 -19 -93 -23
-88 -4 -128 -18 -182 -61 l-25 -20 27 7 c16 4 30 1 34 -6 4 -6 3 -8 -2 -5 -6
3 -16 2 -24 -4 -13 -7 -12 -9 3 -9 10 0 17 -7 16 -17 0 -11 -3 -13 -6 -5 -2 6
-10 12 -18 12 -35 0 -33 26 9 144 33 90 52 126 77 150 18 17 35 30 36 28 2 -1
29 5 60 14 31 9 85 16 120 15 44 -1 63 3 64 11 1 7 3 5 6 -5 2 -9 -16 -58 -41
-108z m-260 54 c-20 -21 -36 -41 -36 -45 0 -4 -4 -8 -10 -8 -5 0 -10 9 -10 21
0 14 5 19 14 16 9 -4 24 10 42 36 15 23 29 36 32 29 2 -7 -12 -29 -32 -49z
m111 51 c-3 -3 -12 -4 -19 -1 -8 3 -5 6 6 6 11 1 17 -2 13 -5z m-8459 -112 l2
-37 -25 44 c-31 53 -31 53 -2 40 18 -8 24 -19 25 -47z m9206 -78 c-2 -74 -2
-76 -39 -110 -21 -19 -40 -32 -43 -30 -2 3 -1 39 3 81 5 60 12 82 32 105 40
48 48 39 47 -46z m-7894 42 c0 -2 -7 -17 -15 -32 -9 -17 -11 -30 -5 -32 6 -2
10 -9 10 -15 0 -7 -4 -7 -12 1 -15 15 -17 53 -3 69 10 12 25 17 25 9z m-1780
-21 c35 -18 36 -21 13 -43 -16 -16 -70 -18 -86 -3 -11 11 13 61 30 61 8 0 27
-7 43 -15z m1118 -83 c17 -15 21 -31 23 -92 3 -79 -6 -93 -37 -59 -14 15 -20
40 -22 95 -4 78 1 86 36 56z m7826 -17 c5 -13 2 -14 -17 -4 -32 17 -33 19 -10
19 12 0 23 -7 27 -15z m-94 -5 c0 -5 -7 -10 -16 -10 -8 0 -12 5 -9 10 3 6 10
10 16 10 5 0 9 -4 9 -10z m1202 -7 c10 -12 15 -43 16 -91 l2 -73 -24 16 c-22
15 -24 21 -19 69 3 31 1 61 -6 74 -9 18 -9 22 2 22 8 0 21 -8 29 -17z m-8301
-29 c-5 -16 -10 -21 -10 -12 -1 18 10 51 15 45 2 -1 -1 -16 -5 -33z m7156 30
c-3 -3 -12 -4 -19 -1 -8 3 -5 6 6 6 11 1 17 -2 13 -5z m-7121 -31 c-10 -10
-19 5 -10 18 6 11 8 11 12 0 2 -7 1 -15 -2 -18z m7642 20 c-48 -102 -49 -103
-102 -103 -33 0 -56 6 -69 18 -20 17 -20 16 -14 -25 4 -33 2 -43 -9 -43 -16 0
-15 -2 -18 62 -1 26 1 43 4 37 4 -5 16 4 28 20 12 16 32 32 44 34 40 8 140 7
136 0z m-8383 -103 c-8 -8 -18 -26 -23 -40 l-9 -25 -17 32 c-22 44 -20 66 11
103 l27 32 12 -43 c11 -36 11 -46 -1 -59z m9343 -11 c19 -21 42 -41 53 -44 32
-11 22 -21 -40 -40 -66 -20 -93 -14 -141 28 -32 29 -90 102 -90 115 0 5 33 14
73 19 70 9 73 9 92 -16 11 -13 35 -42 53 -62z m-10210 32 c30 -22 65 -75 55
-85 -3 -3 -26 -6 -49 -6 -38 0 -49 6 -88 45 l-45 45 27 6 c15 3 32 7 37 9 22
8 38 4 63 -14z m1589 -3 c-3 -8 -6 -5 -6 6 -1 11 2 17 5 13 3 -3 4 -12 1 -19z
m-527 -51 c0 -5 -4 -5 -10 -2 -5 3 -10 14 -10 23 0 15 2 15 10 2 5 -8 10 -19
10 -23z m511 -8 c-5 -13 -10 -19 -10 -12 -1 15 10 45 15 40 3 -2 0 -15 -5 -28z
m7540 4 c-8 -15 -10 -15 -11 -2 0 17 10 32 18 25 2 -3 -1 -13 -7 -23z m-7601
-43 c0 -5 -5 -10 -11 -10 -5 0 -7 5 -4 10 3 6 8 10 11 10 2 0 4 -4 4 -10z
m-1872 -43 c58 -29 91 -54 81 -60 -2 -1 -41 -22 -87 -45 l-83 -44 -50 33 c-33
21 -67 34 -100 37 -53 5 -59 11 -31 29 9 6 43 30 75 52 69 47 96 47 195 -2z
m1872 -6 c-11 -21 -30 -37 -30 -25 0 8 30 44 37 44 2 0 -1 -9 -7 -19z m-65
-29 c-3 -3 -11 0 -18 7 -9 10 -8 11 6 5 10 -3 15 -9 12 -12z m7695 -6 c12 -19
12 -20 -3 -7 -11 9 -17 10 -17 2 0 -6 -4 -11 -8 -11 -4 0 -8 8 -8 18 0 25 20
24 36 -2z m-8495 -87 c17 -7 33 -12 37 -11 3 1 12 -6 20 -15 11 -15 11 -16 -7
-8 -11 5 -55 9 -97 9 -77 1 -111 12 -70 23 12 3 22 10 22 15 0 12 52 5 95 -13z
m8465 -4 c13 -14 19 -25 14 -25 -8 1 -50 50 -41 50 2 0 14 -11 27 -25z m84
-74 c-2 -3 -12 3 -22 13 -16 17 -16 18 5 5 12 -7 20 -15 17 -18z m-8886 -36
c2 -2 -3 -11 -12 -22 -8 -10 -24 -29 -35 -43 -17 -22 -27 -25 -78 -25 -32 0
-67 4 -77 8 -18 7 -15 12 24 52 l43 44 66 -6 c36 -3 67 -7 69 -8z m1402 -25
c0 -5 -4 -10 -10 -10 -5 0 -10 5 -10 10 0 6 5 10 10 10 6 0 10 -4 10 -10z
m-860 -94 c0 -2 -8 -10 -17 -17 -16 -13 -17 -12 -4 4 13 16 21 21 21 13z m765
-16 c-3 -5 -11 -10 -16 -10 -6 0 -7 5 -4 10 3 6 11 10 16 10 6 0 7 -4 4 -10z
m-2137 -301 c2 -84 -12 -159 -29 -159 -3 0 -14 33 -23 73 -19 80 -13 112 26
155 12 12 22 22 23 22 1 0 2 -41 3 -91z m9816 -9 c-7 -6 -24 22 -23 40 0 9 6
5 14 -10 7 -14 11 -27 9 -30z m-9189 0 c12 -11 38 -28 59 -38 l38 -19 -47 -28
c-37 -21 -55 -26 -83 -22 -40 7 -112 53 -112 73 0 11 87 52 114 53 6 1 19 -8
31 -19z m9986 -95 c3 -33 1 -62 -4 -64 -5 -2 -3 -7 4 -12 11 -7 10 -9 -4 -9
-10 0 -31 15 -48 32 -31 34 -71 107 -64 118 2 3 27 3 57 0 l53 -5 6 -60z
m-448 -56 c39 -10 50 -34 20 -41 -10 -2 -31 9 -48 24 -33 31 -29 33 28 17z
m-1363 -25 c0 -20 -7 -17 -20 6 -9 16 -8 18 5 14 8 -4 15 -12 15 -20z m-7180
2 c0 -3 -4 -8 -10 -11 -5 -3 -10 -1 -10 4 0 6 5 11 10 11 6 0 10 -2 10 -4z
m253 -11 c-3 -9 -8 -14 -10 -11 -3 3 -2 9 2 15 9 16 15 13 8 -4z m-1213 -30
c0 -19 0 -38 0 -42 0 -5 -5 -8 -12 -8 -18 0 -32 53 -18 70 20 24 30 17 30 -20z
m8120 25 c0 -5 -4 -10 -10 -10 -5 0 -10 5 -10 10 0 6 5 10 10 10 6 0 10 -4 10
-10z m995 -52 c5 4 5 2 2 -5 -4 -7 26 -33 78 -68 l85 -56 1 -107 c1 -59 2
-122 4 -139 1 -18 0 -33 -3 -33 -4 0 -45 16 -93 36 -85 35 -87 37 -114 92 -22
44 -29 76 -33 143 -2 48 -2 103 2 123 7 36 7 36 35 21 16 -8 32 -11 36 -7z
m-8573 -31 c10 -12 20 -34 23 -49 5 -21 16 -30 46 -39 44 -14 47 -19 21 -43
-17 -14 -48 -16 -111 -7 -2 1 2 8 9 16 13 15 14 14 -35 30 -8 2 -15 13 -15 23
0 11 -11 36 -25 56 -14 20 -25 39 -25 42 0 2 21 2 48 -2 31 -4 53 -13 64 -27z
m608 13 c-8 -5 -19 -10 -25 -10 -5 0 -3 5 5 10 8 5 20 10 25 10 6 0 3 -5 -5
-10z m315 -30 c39 0 45 -4 64 -36 16 -26 19 -40 11 -54 -5 -10 -10 -31 -10
-46 l0 -28 -30 29 c-24 23 -30 36 -26 55 l6 25 -16 -22 c-13 -18 -26 -23 -61
-23 -52 0 -131 18 -139 32 -4 6 13 29 37 53 l43 43 39 -14 c22 -8 59 -14 82
-14z m-382 13 c-13 -2 -33 -2 -45 0 -13 2 -3 4 22 4 25 0 35 -2 23 -4z m610
-28 c-3 -9 -8 -14 -10 -11 -3 3 -2 9 2 15 9 16 15 13 8 -4z m213 -9 c9 -37 1
-70 -18 -74 -10 -2 -18 1 -18 7 0 6 5 10 12 9 7 -2 13 9 13 25 1 26 0 27 -12
10 -7 -10 -16 -22 -21 -28 -4 -5 -11 -17 -14 -27 -5 -12 -18 -16 -51 -16 -24
1 -58 -6 -75 -15 -22 -11 -32 -12 -32 -4 0 18 19 80 29 95 12 20 80 41 133 42
42 0 48 -3 54 -24z m-193 -1 c-3 -9 -8 -14 -10 -11 -3 3 -2 9 2 15 9 16 15 13
8 -4z m7103 -63 c40 -27 40 -28 41 -89 1 -35 -1 -63 -4 -63 -3 0 -20 9 -38 20
-29 18 -33 27 -37 73 -3 28 -9 60 -13 70 -10 24 4 21 51 -11z m-6950 -37 c-4
-10 1 -15 14 -15 11 0 20 -4 20 -8 0 -13 -34 -11 -42 2 -6 8 -11 6 -18 -4 -5
-8 -10 -11 -10 -6 0 10 30 46 38 46 2 0 2 -7 -2 -15z m51 -7 c-3 -8 -6 -5 -6
6 -1 11 2 17 5 13 3 -3 4 -12 1 -19z m6213 2 c-8 -5 -17 -7 -19 -4 -3 3 1 9 9
14 8 5 17 7 19 4 3 -3 -1 -9 -9 -14z m-8099 -13 c-13 -13 -26 -3 -16 12 3 6
11 8 17 5 6 -4 6 -10 -1 -17z m252 -5 c23 -24 26 -35 26 -95 -1 -37 -4 -67 -8
-67 -5 0 -23 10 -42 23 -38 25 -45 52 -34 124 7 50 21 54 58 15z m1654 -4 c-3
-8 -6 -5 -6 6 -1 11 2 17 5 13 3 -3 4 -12 1 -19z m6128 2 c3 -6 -1 -7 -9 -4
-18 7 -21 14 -7 14 6 0 13 -4 16 -10z m-8733 -58 c8 -8 1 -22 -28 -54 l-39
-43 -72 0 c-40 0 -73 1 -73 2 0 12 65 100 78 105 24 11 121 3 134 -10z m2097
-119 c30 -19 42 -35 47 -60 6 -33 -2 -103 -12 -103 -3 0 -23 15 -46 32 -35 29
-39 37 -35 65 3 18 2 46 -3 63 -11 37 -3 37 49 3z m-724 -134 c4 -5 12 -8 18
-6 10 3 71 -103 64 -109 -3 -3 -90 -7 -103 -5 -7 0 -15 12 -18 25 -3 13 -22
38 -41 55 -19 17 -35 32 -35 35 0 14 107 19 115 5z m7115 -29 c0 -5 -2 -10 -4
-10 -3 0 -8 5 -11 10 -3 6 -1 10 4 10 6 0 11 -4 11 -10z m-8430 -119 c0 -25 3
-56 6 -68 l6 -23 -46 26 c-25 14 -51 34 -56 44 -11 21 -14 123 -4 133 4 3 26
-10 50 -30 40 -32 44 -39 44 -82z m983 -82 c3 -11 0 -19 -8 -19 -17 0 -38 27
-31 39 10 15 33 3 39 -20z m8546 -33 c6 -7 13 -34 16 -59 4 -39 2 -45 -11 -40
-19 7 -34 44 -34 84 0 31 11 37 29 15z m-6585 -8 c-8 -12 10 -10 24 4 15 15
13 18 60 -79 l39 -82 -24 -23 c-13 -12 -21 -28 -18 -36 2 -7 1 -10 -5 -7 -10
6 -41 -48 -46 -80 -2 -11 -7 -33 -11 -49 l-9 -28 -53 72 -52 72 12 52 c12 51
43 118 67 144 15 16 15 25 2 38 -7 7 -6 11 4 11 8 0 13 -4 10 -9z m-3271 -10
c27 -14 67 -55 67 -70 0 -7 -5 -7 -14 1 -8 6 -27 9 -43 6 -22 -3 -35 1 -48 15
-10 11 -24 20 -32 20 -32 0 -7 21 45 39 2 1 13 -4 25 -11z m8657 -37 c0 -5 -7
-12 -16 -15 -14 -5 -15 -4 -4 9 14 17 20 19 20 6z m-5473 -43 c-3 -8 -6 -5 -6
6 -1 11 2 17 5 13 3 -3 4 -12 1 -19z m-2902 -54 c31 -23 34 -30 37 -90 2 -35
2 -64 1 -64 -1 0 -18 8 -38 17 -26 12 -38 27 -46 54 -11 34 -5 109 7 109 3 0
20 -11 39 -26z m380 5 c36 -12 65 -25 65 -29 0 -4 -36 -39 -80 -79 l-79 -72
-33 18 c-24 13 -56 18 -115 18 -46 0 -83 2 -83 4 0 12 127 147 144 153 43 13
117 7 181 -13z m2273 -42 c37 -39 -11 -54 -49 -16 -17 17 -19 23 -8 30 22 14
34 11 57 -14z m455 -10 c3 -8 -1 -14 -8 -14 -7 0 -11 6 -8 14 3 7 6 13 8 13 2
0 5 -6 8 -13z m5015 -20 c2 -9 -2 -17 -8 -17 -7 0 -10 6 -7 14 4 9 -1 17 -11
20 -12 3 -12 4 3 3 11 -1 21 -10 23 -20z m-5698 -2 c17 -9 30 -20 30 -25 0
-16 -20 -61 -33 -73 -41 -39 -45 -40 -90 -18 -24 12 -62 22 -85 23 -23 1 -42
4 -42 7 0 3 24 27 53 53 45 41 58 48 95 48 24 0 56 -7 72 -15z m-758 -62 c3
-15 9 -36 13 -46 7 -16 4 -17 -21 -12 -42 10 -74 49 -74 91 l0 34 39 -19 c28
-15 40 -28 43 -48z m1398 12 c-7 -9 -15 -13 -18 -10 -3 2 1 11 8 20 7 9 15 13
18 10 3 -2 -1 -11 -8 -20z m160 14 c0 -5 -4 -8 -9 -4 -5 3 -12 -3 -14 -12 -4
-14 -5 -13 -6 5 -1 13 5 22 14 22 8 0 15 -5 15 -11z m5 -29 c3 -5 1 -10 -4
-10 -6 0 -11 5 -11 10 0 6 2 10 4 10 3 0 8 -4 11 -10z m-135 -10 c0 -5 -4 -10
-10 -10 -5 0 -10 5 -10 10 0 6 5 10 10 10 6 0 10 -4 10 -10z m238 -15 c-6 -14
-13 -23 -15 -21 -5 5 15 46 22 46 3 0 -1 -11 -7 -25z m-1923 -2 c-3 -10 -9
-30 -12 -45 -3 -15 -13 -34 -22 -41 -32 -29 -161 -50 -161 -27 0 6 10 30 23
55 18 37 27 45 52 45 17 1 48 7 70 15 55 18 58 18 50 -2z m7810 -20 c3 -9 3
-18 0 -22 -9 -8 -40 14 -43 32 -4 20 34 11 43 -10z m-5898 -35 c-3 -8 -6 -5
-6 6 -1 11 2 17 5 13 3 -3 4 -12 1 -19z m-2337 -49 c0 -5 7 -6 15 -3 9 4 15 0
15 -10 0 -9 6 -16 13 -17 6 0 3 -4 -8 -9 -15 -6 -26 -1 -47 22 -33 35 -34 38
-8 31 11 -3 20 -9 20 -14z m2552 -79 c-23 -22 -52 -32 -52 -19 0 6 9 13 20 16
11 3 18 8 16 12 -3 4 4 7 14 7 18 0 18 -1 2 -16z m5243 -10 c3 -5 1 -10 -4
-10 -6 0 -11 5 -11 10 0 6 2 10 4 10 3 0 8 -4 11 -10z m-5302 -55 c-3 -9 -8
-14 -10 -11 -3 3 -2 9 2 15 9 16 15 13 8 -4z m5384 -7 c-3 -8 -6 -5 -6 6 -1
11 2 17 5 13 3 -3 4 -12 1 -19z m-5407 -8 c0 -5 -5 -10 -11 -10 -5 0 -7 5 -4
10 3 6 8 10 11 10 2 0 4 -4 4 -10z m212 -38 c-7 -2 -10 -8 -6 -13 3 -5 0 -9
-5 -9 -6 0 -11 9 -11 20 0 14 5 18 17 13 11 -4 13 -8 5 -11z m-2562 -15 c0
-25 -32 -62 -43 -50 -12 11 -8 36 10 55 22 24 33 23 33 -5z m2520 13 c0 -5 -2
-10 -4 -10 -3 0 -8 5 -11 10 -3 6 -1 10 4 10 6 0 11 -4 11 -10z m5673 -36 c22
-25 50 -49 61 -54 20 -7 19 -9 -9 -20 -16 -7 -46 -14 -66 -17 -33 -5 -40 -1
-87 46 -74 74 -72 79 42 89 11 1 35 -17 59 -44z m-5728 26 c-3 -5 -12 -10 -18
-10 -7 0 -6 4 3 10 19 12 23 12 15 0z m3945 6 c0 -9 -30 -14 -35 -6 -4 6 3 10
14 10 12 0 21 -2 21 -4z m-3816 -31 c-7 -16 -24 -21 -24 -6 0 8 7 13 27 20 1
1 0 -6 -3 -14z m56 -5 c0 -5 -4 -10 -10 -10 -5 0 -10 5 -10 10 0 6 5 10 10 10
6 0 10 -4 10 -10z m-15 -50 c-3 -5 1 -11 7 -14 7 -3 -3 -3 -22 1 -19 3 -40 6
-47 6 -6 0 -9 5 -7 12 3 6 19 9 39 7 19 -2 33 -8 30 -12z m6481 -20 c33 -33
43 -48 37 -54 -9 -9 -25 -7 -20 2 3 4 -8 7 -24 8 -16 1 -29 -3 -29 -9 0 -6 -8
-3 -19 7 -16 15 -19 15 -31 1 -7 -9 -15 -13 -18 -10 -7 7 59 75 73 75 6 0 20
-9 31 -20z m-6582 -5 c-4 -8 -10 -15 -15 -15 -5 0 -9 -8 -10 -17 0 -12 -2 -13
-6 -5 -3 7 3 22 13 33 21 23 25 24 18 4z m5345 -14 c28 -25 30 -29 13 -33 -23
-6 -47 10 -56 40 -10 30 4 28 43 -7z m-5246 -25 c-13 -17 -21 -21 -30 -14 -9
7 -18 6 -30 -3 -16 -12 -17 -12 -6 2 7 9 9 19 5 23 -4 4 5 5 19 1 16 -4 30 -2
33 4 4 6 12 11 17 11 5 0 2 -11 -8 -24z m-73 0 c0 -9 -30 -14 -35 -6 -4 6 3
10 14 10 12 0 21 -2 21 -4z m4125 -26 c8 -16 15 -37 15 -47 0 -10 -9 1 -19 24
-11 22 -27 43 -38 46 -15 4 -14 5 4 6 15 1 27 -8 38 -29z m-7712 -18 c-2 -13
1 -21 6 -18 5 4 7 -3 4 -14 -7 -26 -37 -11 -59 31 l-15 30 33 -3 c28 -2 33 -7
31 -26z m7664 -7 c20 -19 31 -35 25 -35 -6 0 -19 10 -29 23 -10 13 -27 28 -38
35 -11 6 -14 12 -7 12 7 0 29 -16 49 -35z m-7573 -6 c20 -10 24 -18 24 -55 0
-24 3 -53 7 -65 5 -15 3 -20 -6 -17 -13 4 -33 87 -24 96 3 3 -4 11 -15 19 -11
8 -20 18 -20 24 0 12 4 11 34 -2z m6611 -119 c14 -5 8 -7 -22 -6 -24 0 -43 4
-43 9 0 9 39 8 65 -3z m-4920 -51 c50 -18 109 -32 133 -33 33 -1 47 -7 65 -28
12 -14 32 -31 45 -37 32 -17 28 -26 -20 -44 -37 -15 -44 -15 -65 -2 -13 9 -23
11 -23 5 0 -6 7 -13 15 -16 14 -6 13 -8 -2 -20 -12 -10 -13 -12 -3 -9 12 4 15
-8 15 -70 0 -43 -4 -75 -10 -75 -5 0 -47 17 -92 37 l-83 37 0 46 c0 65 -26
158 -55 196 -42 54 -40 55 80 13z m2285 -64 c11 -13 10 -14 -4 -9 -9 3 -16 10
-16 15 0 13 6 11 20 -6z m3490 -10 c40 -13 70 -61 70 -112 0 -39 -4 -39 -64
-13 -36 15 -46 24 -46 43 0 12 -9 40 -20 62 -11 22 -20 41 -20 43 0 3 16 -1
80 -23z m1014 4 c30 -18 36 -27 36 -56 0 -19 5 -43 11 -55 6 -11 9 -22 6 -24
-7 -8 -72 18 -84 34 -12 14 -19 122 -9 122 3 0 21 -9 40 -21z m-3662 -26 c3
-21 8 -47 12 -58 7 -17 5 -16 -12 4 l-19 23 3 -33 4 -34 -10 29 c-6 19 -6 36
1 48 6 10 7 28 4 38 -4 11 -2 20 3 20 6 0 12 -17 14 -37z m-842 2 c16 -19 10
-19 -26 0 -25 13 -26 15 -8 15 12 0 27 -7 34 -15z m-40 -38 c0 -29 27 -67 46
-67 8 0 12 -4 9 -10 -9 -15 -43 10 -54 40 -20 51 -24 73 -12 66 6 -4 11 -17
11 -29z m90 -55 c-1 -15 -40 41 -40 57 0 9 8 3 20 -17 11 -18 20 -36 20 -40z
m940 34 c0 -14 -4 -27 -8 -30 -5 -3 -9 8 -9 24 0 17 4 30 9 30 4 0 8 -11 8
-24z m1063 -3 c-24 -2 -62 -2 -85 0 -24 2 -5 4 42 4 47 0 66 -2 43 -4z m898
-63 l72 -70 -6 -58 c-3 -31 -9 -68 -13 -81 -7 -23 -6 -24 33 -18 35 6 41 4 53
-18 7 -14 19 -25 27 -25 21 0 15 -17 -9 -24 -43 -11 -69 -6 -92 19 -13 14 -27
25 -31 25 -5 0 -6 -3 -2 -6 7 -7 -37 -99 -51 -108 -13 -8 -124 155 -119 173 3
9 17 44 31 78 18 42 27 82 27 123 1 33 3 60 4 60 2 0 36 -32 76 -70z m-2086
30 c3 -5 1 -10 -4 -10 -6 0 -11 5 -11 10 0 6 2 10 4 10 3 0 8 -4 11 -10z m945
-31 c0 -6 -4 -7 -10 -4 -5 3 -10 11 -10 16 0 6 5 7 10 4 6 -3 10 -11 10 -16z
m53 14 c-7 -2 -21 -2 -30 0 -10 3 -4 5 12 5 17 0 24 -2 18 -5z m305 -55 l-3
-63 -90 -6 c-109 -8 -138 -14 -192 -45 -23 -13 -44 -21 -46 -17 -2 5 -5 35 -6
68 -1 33 -4 68 -7 77 -4 12 2 19 18 23 60 15 132 23 226 24 l103 1 -3 -62z
m415 35 c-6 -15 -5 -15 17 0 14 9 28 17 32 17 12 0 10 -48 -2 -55 -6 -4 -7
-11 -4 -17 5 -7 2 -8 -6 -3 -7 4 -16 2 -21 -6 -4 -7 -10 -11 -13 -9 -8 9 -14
100 -5 95 4 -3 5 -13 2 -22z m-1483 -29 c0 -3 -7 -1 -15 6 -8 7 -15 17 -15 22
0 5 7 3 15 -6 8 -8 15 -18 15 -22z m-1326 1 c-4 -8 -11 -12 -16 -9 -6 4 -5 10
3 15 19 12 19 11 13 -6z m2013 -47 c-2 -13 -4 -3 -4 22 0 25 2 35 4 23 2 -13
2 -33 0 -45z m3423 26 c0 -24 -14 -32 -25 -14 -9 14 4 52 16 45 5 -4 9 -17 9
-31z m-8433 -23 l51 -48 -34 -17 c-19 -9 -43 -16 -53 -16 -19 0 -121 85 -121
100 0 8 63 26 95 29 6 0 33 -21 62 -48z m5030 17 c-3 -7 -5 -2 -5 12 0 14 2
19 5 13 2 -7 2 -19 0 -25z m-2182 3 c33 -11 62 -18 65 -16 3 2 7 -20 8 -48 2
-44 -1 -55 -21 -72 -12 -11 -33 -47 -46 -80 -13 -33 -27 -64 -31 -68 -4 -5
-28 2 -53 14 -45 22 -46 23 -31 50 19 38 46 155 44 193 -2 36 -1 46 3 46 2 0
30 -9 62 -19z m176 -17 c-5 -16 -10 -21 -10 -12 -1 18 10 51 15 45 2 -1 -1
-16 -5 -33z m-572 -8 c-3 -3 -11 5 -18 17 -13 21 -12 21 5 5 10 -10 16 -20 13
-22z m-911 -18 c35 1 62 -11 62 -29 0 -5 -12 -9 -26 -9 -16 0 -34 -10 -47 -26
-19 -24 -25 -26 -76 -21 -53 5 -131 33 -131 47 0 4 23 23 50 42 l50 35 41 -20
c23 -11 57 -20 77 -19z m842 -31 c0 -4 -13 8 -30 26 -16 19 -30 38 -30 42 0
10 60 -58 60 -68z m-1776 16 c-2 -26 1 -50 7 -54 6 -4 -1 -28 -21 -65 -18 -32
-33 -60 -35 -62 -1 -2 -49 -4 -106 -5 -85 -2 -112 -6 -148 -24 -25 -13 -46
-23 -47 -23 -10 0 106 223 122 234 36 26 109 45 170 46 l61 0 -3 -47z m7059 3
l44 -44 -37 -11 c-56 -17 -66 -14 -110 25 -60 54 -55 63 42 72 10 1 37 -18 61
-42z m1674 32 l46 -11 -6 -79 c-6 -74 -5 -78 14 -78 17 0 20 -5 17 -31 l-3
-30 -70 -3 c-38 -2 -78 -6 -87 -11 -16 -6 -18 -1 -18 34 0 34 3 41 20 41 31 0
43 36 38 112 -3 37 -3 68 -1 68 2 0 25 -5 50 -12z m-6157 -57 c8 -16 5 -20
-16 -25 -18 -5 -33 0 -54 16 -36 29 -37 36 -2 40 33 5 58 -6 72 -31z m-3253
-75 c-9 -23 -18 -19 -51 21 -24 28 -27 36 -15 44 19 12 74 -43 66 -65z m5093
54 c0 -5 -2 -10 -4 -10 -3 0 -8 5 -11 10 -3 6 -1 10 4 10 6 0 11 -4 11 -10z
m-1890 -32 c0 -4 -4 -10 -10 -13 -5 -3 -10 1 -10 9 0 9 -4 16 -10 16 -5 0 -10
5 -10 10 0 6 8 5 20 -2 11 -7 20 -16 20 -20z m457 -10 c1 -13 -1 -38 -3 -56
-5 -33 -6 -33 -25 -16 -24 22 -24 49 1 74 25 25 25 25 27 -2z m5323 -80 c0
-21 7 -54 14 -73 8 -19 13 -35 10 -35 -3 0 -25 5 -48 11 -37 9 -46 17 -59 47
-19 47 -27 93 -21 120 6 20 6 20 55 -5 46 -24 49 -28 49 -65z m-8084 74 c-3
-5 9 -6 25 -4 l31 5 -15 -30 c-13 -25 -22 -30 -61 -32 -60 -3 -67 3 -54 39 8
26 15 30 45 30 19 0 32 -4 29 -8z m6084 -61 c0 -11 -5 -23 -11 -26 -20 -13
-81 -11 -86 2 -9 23 18 43 58 43 32 0 39 -4 39 -19z m-3975 -111 c-3 -5 -12
-10 -18 -10 -7 0 -6 4 3 10 19 12 23 12 15 0z m165 -23 c0 -2 -10 -12 -22 -23
l-23 -19 19 23 c18 21 26 27 26 19z m-498 -46 c7 -20 6 -22 -6 -12 -10 8 -15
9 -18 1 -2 -6 -12 -3 -24 8 -11 10 -26 22 -34 25 -8 3 5 5 29 4 36 -2 45 -6
53 -26z m7277 15 c8 -10 9 -16 2 -21 -14 -8 -53 13 -46 26 9 13 31 11 44 -5z
m-1764 -28 c24 -18 44 -37 45 -42 0 -15 -61 -109 -108 -164 l-45 -53 -35 34
-34 34 52 67 c28 37 56 88 62 112 7 24 14 44 15 44 2 0 24 -15 48 -32z m-5055
8 c0 -3 -4 -8 -10 -11 -5 -3 -10 -1 -10 4 0 6 5 11 10 11 6 0 10 -2 10 -4z
m199 -43 c8 -5 -32 -43 -45 -43 -23 0 -64 23 -64 35 0 29 69 34 109 8z m-270
-16 c-2 -1 -13 -9 -24 -17 -19 -14 -19 -14 -6 3 7 9 18 17 24 17 6 0 8 -1 6
-3z m-2402 -78 c-1 -70 -1 -70 -19 -47 -22 29 -23 67 -2 96 8 12 17 22 18 22
2 0 3 -32 3 -71z m7304 -65 c-31 -40 -91 -78 -126 -80 -41 -3 -52 7 -24 22 17
9 28 9 36 2 10 -8 13 1 14 43 1 30 1 57 0 61 0 4 16 16 37 27 20 11 44 30 52
43 14 22 15 21 23 -34 8 -51 7 -60 -12 -84z m-849 21 c-5 -42 -14 -44 -41 -9
-15 19 -19 34 -15 53 11 43 16 46 39 18 15 -20 20 -37 17 -62z m1113 15 c1
-39 -2 -70 -6 -70 -4 0 -13 10 -21 22 -13 19 -12 27 6 70 11 26 20 48 20 48 1
0 1 -32 1 -70z m-3815 -90 c0 -25 -18 -70 -27 -70 -5 0 -17 15 -29 33 -18 27
-19 34 -8 45 8 7 14 25 14 40 l1 27 24 -28 c14 -15 25 -37 25 -47z m754 15 c9
-45 2 -66 -25 -83 -18 -12 -23 -12 -30 0 -12 18 -11 68 1 68 6 0 16 11 22 25
15 34 25 31 32 -10z m289 -2 c-6 -42 -19 -63 -38 -63 -8 0 -27 -12 -44 -26
l-31 -26 0 48 c0 50 9 63 65 89 48 23 54 19 48 -22z m-4803 -23 c-12 -22 -50
-27 -50 -7 0 20 10 27 37 27 21 0 22 -3 13 -20z m6848 -6 c6 -5 8 -84 2 -84
-21 1 -50 51 -50 86 0 11 6 13 23 8 12 -3 24 -8 25 -10z m-3168 -8 c0 -2 -8
-10 -17 -17 -16 -13 -17 -12 -4 4 13 16 21 21 21 13z m2132 -68 c-5 -106 -5
-107 -30 -60 l-22 43 19 45 c11 24 24 44 28 44 5 0 7 -33 5 -72z m-2677 -18
c3 -5 2 -10 -4 -10 -6 0 -7 -11 -2 -27 14 -53 4 -66 -45 -60 -25 2 -48 8 -51
11 -7 7 76 96 88 96 5 0 11 -4 14 -10z m5494 -71 c-10 -19 -48 -49 -61 -49 -5
0 -8 18 -8 39 0 34 5 42 33 58 l32 19 7 -24 c4 -14 3 -33 -3 -43z m-5056 -1
c18 -21 24 -68 8 -68 -5 0 -11 -9 -13 -21 -2 -17 -11 -21 -53 -24 -27 -1 -58
-6 -68 -10 -16 -7 -18 -3 -15 26 3 34 3 34 54 34 l51 0 -10 30 c-5 17 -14 34
-18 40 -17 17 -9 25 19 19 15 -3 35 -15 45 -26z m619 -73 c-5 -41 -5 -40 -43
-18 -35 21 -36 27 -6 41 42 20 53 15 49 -23z m2647 -115 c-2 -67 -3 -72 -30
-86 l-29 -15 0 70 c0 71 14 101 46 101 12 0 14 -14 13 -70z m-6274 26 c0 -13
-3 -28 -7 -31 -4 -4 -3 -16 3 -26 7 -14 6 -19 -2 -19 -15 0 -89 42 -89 51 0 3
21 16 48 27 26 12 47 21 47 22 1 0 1 -11 0 -24z m3895 -47 c0 -20 -25 -48 -42
-49 -13 0 -9 45 4 58 19 19 38 14 38 -9z m2616 -104 c0 -41 -2 -72 -6 -70 -4
2 -15 25 -25 50 -17 46 -17 47 6 71 12 13 23 24 23 24 1 0 1 -34 2 -75z
m-7516 40 c0 -14 -4 -25 -10 -25 -5 0 -10 11 -10 25 0 14 5 25 10 25 6 0 10
-11 10 -25z m7116 -37 l-1 -63 -44 2 c-67 3 -69 15 -16 72 26 28 51 51 55 51
5 0 7 -28 6 -62z m-6323 -79 l2 -86 -28 21 c-23 17 -27 25 -20 46 4 14 8 51 7
83 0 56 0 57 18 40 14 -15 19 -37 21 -104z m7315 34 c46 -27 47 -30 28 -55
-12 -16 -16 -15 -61 7 -27 14 -57 25 -67 25 -22 0 -23 9 -2 38 18 26 35 24
102 -15z m-9344 -40 c-1 -26 -7 -41 -23 -51 -12 -8 -23 -13 -26 -11 -9 10 20
89 34 92 9 3 16 5 16 6 0 0 0 -16 -1 -36z m2916 7 c0 -10 -9 -24 -20 -30 -23
-12 -24 -11 -10 24 11 31 30 34 30 6z m6017 -59 c13 -17 26 -61 20 -67 -2 -2
-20 1 -40 7 -24 6 -37 16 -37 27 0 10 -7 28 -16 40 l-16 23 38 -7 c22 -4 44
-14 51 -23z m-3417 -26 c0 -48 -16 -61 -26 -21 -5 21 9 66 21 66 3 0 5 -20 5
-45z m-3352 -66 c-1 -40 -4 -47 -16 -40 -11 6 -16 26 -16 64 -1 52 0 54 16 40
12 -10 16 -30 16 -64z m1432 43 c0 -17 -37 -48 -47 -39 -6 7 27 57 38 57 5 0
9 -8 9 -18z m1482 -232 c12 0 17 -12 20 -50 2 -34 -1 -50 -9 -50 -15 0 -58 57
-68 89 -7 21 -5 23 16 18 13 -4 31 -7 41 -7z m-526 -27 c-2 -16 -5 -30 -5 -33
-1 -3 -6 2 -11 12 -11 18 -4 48 11 48 6 0 8 -12 5 -27z m-1486 -59 c0 -35 -4
-64 -8 -64 -30 0 -42 63 -22 115 16 42 30 19 30 -51z m3846 13 c-1 -56 -4 -66
-34 -97 l-32 -35 0 69 c0 62 3 73 27 98 15 15 30 28 33 28 4 0 6 -28 6 -63z
m822 -58 c-2 -55 -21 -43 -23 14 -2 39 0 45 11 36 8 -6 13 -28 12 -50z m332
49 c0 -20 -12 -32 -42 -45 -25 -11 -28 -11 -28 7 0 10 7 26 16 34 18 19 54 21
54 4z m1681 -121 c18 -14 26 -107 9 -107 -5 0 -10 14 -10 30 0 17 -7 44 -15
60 -16 32 -11 38 16 17z m-3942 -87 c-8 -6 -2 -86 6 -101 4 -5 4 -9 1 -9 -3 0
-17 18 -32 40 l-26 39 23 48 24 49 5 -31 c3 -16 2 -32 -1 -35z m4490 23 c6
-26 19 -56 28 -65 20 -22 14 -29 -28 -31 -30 -2 -35 2 -45 33 -6 19 -14 52
-18 73 -7 36 -6 37 21 37 26 0 30 -5 42 -47z m479 -55 l-3 -23 -13 23 c-11 19
-11 26 0 39 12 15 13 15 16 0 2 -9 2 -27 0 -39z m-8208 -43 c-4 -5 -6 -17 -5
-25 2 -8 5 -27 8 -42 7 -33 7 -33 -40 -13 -38 16 -73 42 -73 55 0 4 20 15 44
24 28 11 46 25 51 39 7 22 7 22 14 -3 4 -14 5 -29 1 -35z m3588 -35 c-2 -40
-16 -54 -43 -44 -19 8 -19 8 8 49 29 45 38 44 35 -5z m716 -19 c10 -11 31 -25
47 -31 35 -15 35 -17 7 -40 -19 -15 -25 -16 -43 -4 -12 8 -31 28 -44 45 -19
25 -21 33 -10 40 20 12 24 11 43 -10z m2286 -2 c47 -10 51 -13 48 -37 l-3 -27
-85 2 -85 2 4 28 c1 15 5 31 8 36 6 10 54 9 113 -4z m-4751 -146 c-2 -59 -3
-64 -16 -47 -23 32 -26 63 -9 89 9 14 19 25 22 25 2 0 4 -30 3 -67z m2797 32
c3 -8 -4 -26 -15 -41 -12 -15 -21 -33 -21 -40 0 -18 -10 -17 -34 1 -20 15 -19
19 28 73 23 26 34 28 42 7z m-694 -60 c-4 -56 -5 -58 -18 -35 -18 34 -17 60 3
82 9 10 17 17 18 16 0 -2 -1 -30 -3 -63z m3294 -76 l-1 -121 -27 31 c-33 36
-37 90 -13 148 14 33 33 63 40 63 1 0 2 -54 1 -121z m-4319 57 c1 -42 -1 -45
-28 -51 -16 -4 -31 -11 -34 -16 -4 -5 -10 -9 -15 -9 -13 0 28 93 47 108 25 18
28 16 30 -32z m-692 -2 c0 -34 -1 -35 -29 -30 -16 4 -32 9 -35 12 -5 4 48 53
59 54 3 0 5 -16 5 -36z m-1056 -151 c-2 -51 -3 -53 -19 -38 -14 13 -16 23 -10
45 5 16 6 39 2 52 -5 20 -4 22 11 9 12 -10 17 -28 16 -68z m429 -219 c19 -6
22 -11 17 -35 -4 -15 -1 -37 5 -48 25 -47 -38 -8 -69 43 -12 18 -21 36 -21 40
0 8 38 8 68 0z m-1041 -200 c-2 -3 -17 0 -33 6 l-28 11 30 18 c29 18 29 18 32
-7 2 -13 2 -26 -1 -28z m2620 -229 c0 -8 -6 -15 -13 -15 -18 0 -27 17 -12 23
21 9 25 8 25 -8z m1065 -52 c-6 -2 -9 -10 -5 -16 3 -6 7 -23 7 -39 1 -21 -5
-30 -24 -37 -14 -5 -33 -12 -43 -16 -16 -7 -15 -3 3 41 26 59 38 74 59 73 10
0 12 -2 3 -6z m-997 -161 c9 -6 16 -52 9 -52 -7 0 -44 44 -44 52 0 10 22 10
35 0z m1015 -159 c0 -13 -3 -13 -15 -3 -8 7 -15 16 -15 21 0 5 7 6 15 3 8 -4
15 -13 15 -21z m-908 -255 c-5 -13 -7 -68 -5 -123 l3 -100 -31 59 c-28 54 -30
62 -20 96 10 33 46 90 56 90 3 0 1 -10 -3 -22z m410 -146 l-4 -74 -22 33 -23
33 24 34 c12 19 23 39 23 45 0 6 1 8 3 6 1 -2 1 -37 -1 -77z m-2016 -73 c0
-19 4 -41 8 -47 15 -25 -17 -11 -50 22 -47 47 -45 68 4 64 35 -3 37 -5 38 -39z"/>
<path d="M797 7749 c7 -7 15 -10 18 -7 3 3 -2 9 -12 12 -14 6 -15 5 -6 -5z"/>
<path d="M4757 11325 c-4 -8 -2 -17 3 -20 6 -4 10 3 10 14 0 25 -6 27 -13 6z"/>
<path d="M4785 11310 c-4 -17 -5 -34 -2 -36 2 -3 7 10 11 27 8 42 0 50 -9 9z"/>
<path d="M5465 11310 c-16 -16 -35 -30 -42 -30 -8 0 -11 -4 -8 -10 3 -5 -5
-12 -19 -16 -13 -3 -27 -12 -29 -19 -3 -7 -18 -16 -34 -19 -15 -4 -35 -13 -43
-21 -24 -20 -188 -67 -258 -73 -43 -3 -60 -8 -54 -16 5 -6 19 -41 32 -78 l24
-68 46 0 c87 0 225 50 316 115 63 45 124 117 126 149 5 112 5 116 -12 116 -9
0 -29 -13 -45 -30z"/>
<path d="M6730 11289 c0 -5 5 -7 10 -4 6 3 10 8 10 11 0 2 -4 4 -10 4 -5 0
-10 -5 -10 -11z"/>
<path d="M6791 11274 c0 -11 3 -14 6 -6 3 7 2 16 -1 19 -3 4 -6 -2 -5 -13z"/>
<path d="M6756 11265 c-3 -8 -1 -15 4 -15 6 0 10 7 10 15 0 8 -2 15 -4 15 -2
0 -6 -7 -10 -15z"/>
<path d="M4791 11171 c1 -77 4 -89 27 -113 34 -37 44 -35 36 7 -3 20 -1 55 6
80 12 44 12 45 -19 71 -17 14 -29 29 -26 33 2 4 -3 8 -11 8 -12 0 -15 -15 -13
-86z"/>
<path d="M4845 11250 c-16 -7 -17 -9 -3 -9 9 -1 20 4 23 9 7 11 7 11 -20 0z"/>
<path d="M6820 11172 c0 -62 3 -71 29 -96 l28 -27 7 23 c3 13 6 45 6 71 0 38
-5 53 -25 72 -38 39 -45 32 -45 -43z"/>
<path d="M6325 11039 c0 -125 2 -141 18 -151 10 -5 24 -7 32 -5 15 6 55 107
55 141 0 25 -46 99 -82 133 l-23 22 0 -140z"/>
<path d="M7769 11087 c4 -4 18 -3 32 2 23 9 22 9 -8 8 -18 -1 -28 -6 -24 -10z"/>
<path d="M7769 11057 c5 -5 17 -5 28 2 16 9 15 10 -9 9 -16 -2 -24 -6 -19 -11z"/>
<path d="M4750 11046 c0 -2 7 -7 16 -10 8 -3 12 -2 9 4 -6 10 -25 14 -25 6z"/>
<path d="M5400 11016 c0 -2 12 -12 28 -21 l27 -18 -19 21 c-17 20 -36 29 -36
18z"/>
<path d="M7688 11003 c6 -2 18 -2 25 0 6 3 1 5 -13 5 -14 0 -19 -2 -12 -5z"/>
<path d="M6501 10984 c0 -11 3 -14 6 -6 3 7 2 16 -1 19 -3 4 -6 -2 -5 -13z"/>
<path d="M6580 10976 c0 -2 8 -10 18 -17 15 -13 16 -12 3 4 -13 16 -21 21 -21
13z"/>
<path d="M5842 10940 c0 -19 2 -27 5 -17 2 9 2 25 0 35 -3 9 -5 1 -5 -18z"/>
<path d="M7726 10941 c-3 -4 27 -11 67 -14 83 -6 178 -41 241 -90 23 -18 44
-36 48 -42 11 -15 68 -13 68 2 0 9 -6 10 -23 2 -20 -9 -28 -5 -60 25 -53 50
-166 103 -234 111 -32 3 -68 8 -80 11 -12 2 -24 0 -27 -5z"/>
<path d="M5953 10900 c0 -25 2 -35 4 -22 2 12 2 32 0 45 -2 12 -4 2 -4 -23z"/>
<path d="M6490 10922 c-8 -3 -27 -13 -41 -23 -23 -16 -26 -24 -26 -89 -1 -50
2 -70 10 -67 7 3 25 -7 42 -22 l30 -26 -23 26 c-28 32 -28 36 4 98 27 56 30
111 4 103z"/>
<path d="M7291 10910 c14 -31 19 -36 19 -24 0 6 -7 19 -16 30 -14 18 -14 18
-3 -6z"/>
<path d="M4960 10895 c14 -16 26 -32 28 -34 1 -2 4 -2 7 1 3 2 -10 18 -28 34
l-32 29 25 -30z"/>
<path d="M5372 10883 c-15 -48 -8 -55 8 -8 7 20 10 38 8 41 -3 2 -10 -13 -16
-33z"/>
<path d="M7255 10890 c-4 -19 -14 -48 -22 -64 -8 -15 -10 -25 -5 -22 15 9 45
92 40 108 -3 7 -8 -3 -13 -22z"/>
<path d="M6090 10901 c0 -6 4 -13 10 -16 6 -3 7 1 4 9 -7 18 -14 21 -14 7z"/>
<path d="M4915 10880 c-4 -12 -5 -24 -2 -27 3 -2 8 5 12 17 4 12 5 24 2 27 -3
2 -8 -5 -12 -17z"/>
<path d="M7868 10893 c7 -3 16 -2 19 1 4 3 -2 6 -13 5 -11 0 -14 -3 -6 -6z"/>
<path d="M7924 10876 c11 -9 24 -16 30 -16 12 0 7 5 -24 19 -24 11 -24 11 -6
-3z"/>
<path d="M7310 10865 c0 -5 5 -17 10 -25 5 -8 10 -10 10 -5 0 6 -5 17 -10 25
-5 8 -10 11 -10 5z"/>
<path d="M8261 10843 c1 -10 5 -29 9 -43 7 -21 8 -19 9 18 1 23 -3 42 -9 42
-5 0 -10 -8 -9 -17z"/>
<path d="M4902 10820 c0 -14 2 -19 5 -12 2 6 2 18 0 25 -3 6 -5 1 -5 -13z"/>
<path d="M5961 10824 c0 -11 3 -14 6 -6 3 7 2 16 -1 19 -3 4 -6 -2 -5 -13z"/>
<path d="M8160 10789 c0 -5 5 -7 10 -4 6 3 10 8 10 11 0 2 -4 4 -10 4 -5 0
-10 -5 -10 -11z"/>
<path d="M7356 10770 c7 -27 34 -71 34 -55 -1 6 -10 26 -21 45 -15 26 -18 29
-13 10z"/>
<path d="M6810 10770 c34 -11 60 -11 35 0 -11 5 -29 8 -40 8 -16 0 -15 -2 5
-8z"/>
<path d="M7966 10771 c-4 -5 3 -7 14 -4 23 6 26 13 6 13 -8 0 -17 -4 -20 -9z"/>
<path d="M4890 10762 c0 -6 -8 -13 -17 -15 -16 -4 -16 -5 -1 -6 18 -1 34 16
24 26 -3 4 -6 1 -6 -5z"/>
<path d="M7885 10760 c3 -5 8 -10 11 -10 2 0 4 5 4 10 0 6 -5 10 -11 10 -5 0
-7 -4 -4 -10z"/>
<path d="M6766 10745 c4 -8 8 -15 10 -15 2 0 4 7 4 15 0 8 -4 15 -10 15 -5 0
-7 -7 -4 -15z"/>
<path d="M7185 10752 c-5 -4 -17 -16 -25 -27 -11 -15 -7 -14 13 4 24 22 32 31
25 31 -2 0 -7 -4 -13 -8z"/>
<path d="M7905 10737 c-11 -7 -22 -15 -25 -18 -3 -3 -18 -11 -35 -17 -16 -6
-24 -11 -17 -11 17 -1 99 36 107 49 8 13 -5 12 -30 -3z"/>
<path d="M7960 10721 c0 -25 6 -27 13 -6 4 8 2 17 -3 20 -6 4 -10 -3 -10 -14z"/>
<path d="M4785 10720 c-8 -13 5 -13 25 0 13 8 13 10 -2 10 -9 0 -20 -4 -23
-10z"/>
<path d="M8350 10709 c0 -5 11 -9 25 -9 14 0 25 2 25 4 0 2 -11 6 -25 8 -14 3
-25 1 -25 -3z"/>
<path d="M4760 10700 c0 -11 48 -58 75 -72 15 -8 14 -5 -5 13 -14 13 -35 34
-47 46 -13 12 -23 18 -23 13z"/>
<path d="M6782 10690 c0 -14 2 -19 5 -12 2 6 2 18 0 25 -3 6 -5 1 -5 -13z"/>
<path d="M3840 10680 c0 -22 25 -18 34 6 3 9 -1 14 -14 14 -13 0 -20 -7 -20
-20z"/>
<path d="M7376 10675 c-9 -26 -7 -32 5 -12 6 10 9 21 6 23 -2 3 -7 -2 -11 -11z"/>
<path d="M7760 10670 c0 -5 5 -10 10 -10 6 0 10 5 10 10 0 6 -4 10 -10 10 -5
0 -10 -4 -10 -10z"/>
<path d="M5512 10628 c0 -71 -2 -89 -10 -84 -4 2 -9 -75 -11 -172 -1 -97 -5
-180 -8 -185 -3 -5 5 -3 16 5 12 7 32 34 45 60 23 46 23 50 9 99 -13 46 -13
52 1 68 23 25 38 124 26 175 -8 37 -39 76 -61 76 -4 0 -8 -19 -7 -42z m33 12
c3 -5 2 -10 -4 -10 -5 0 -13 5 -16 10 -3 6 -2 10 4 10 5 0 13 -4 16 -10z"/>
<path d="M7761 10638 c0 -9 -4 -25 -7 -35 -5 -17 -5 -17 6 0 6 10 9 25 7 35
-4 15 -5 15 -6 0z"/>
<path d="M7951 10624 c0 -11 3 -14 6 -6 3 7 2 16 -1 19 -3 4 -6 -2 -5 -13z"/>
<path d="M6801 10614 c0 -11 3 -14 6 -6 3 7 2 16 -1 19 -3 4 -6 -2 -5 -13z"/>
<path d="M3760 10600 c0 -13 5 -17 14 -14 24 9 28 34 6 34 -13 0 -20 -7 -20
-20z"/>
<path d="M7918 10593 c7 -3 16 -2 19 1 4 3 -2 6 -13 5 -11 0 -14 -3 -6 -6z"/>
<path d="M7315 10549 c-4 -6 -5 -12 -2 -15 2 -3 7 2 10 11 7 17 1 20 -8 4z"/>
<path d="M3680 10520 c0 -22 25 -18 34 6 3 9 -1 14 -14 14 -13 0 -20 -7 -20
-20z"/>
<path d="M7436 10505 c-8 -22 -7 -95 2 -118 7 -17 61 -51 69 -43 3 2 0 13 -6
24 -6 12 -11 51 -11 89 0 41 -4 63 -9 55 -10 -17 -21 -17 -31 -2 -5 8 -9 7
-14 -5z"/>
<path d="M8192 10498 c-24 -5 -42 -12 -39 -14 2 -3 23 -1 45 4 32 8 46 6 63
-6 12 -8 19 -10 15 -4 -14 22 -41 29 -84 20z"/>
<path d="M7255 10480 c-3 -5 -1 -10 4 -10 6 0 11 5 11 10 0 6 -2 10 -4 10 -3
0 -8 -4 -11 -10z"/>
<path d="M8129 10453 c6 -13 19 -23 28 -23 9 0 14 1 12 3 -2 1 -15 11 -28 22
l-24 20 12 -22z"/>
<path d="M3600 10440 c0 -13 5 -17 14 -14 24 9 28 34 6 34 -13 0 -20 -7 -20
-20z"/>
<path d="M8315 10449 c-4 -6 -5 -12 -2 -15 2 -3 7 2 10 11 7 17 1 20 -8 4z"/>
<path d="M8535 10450 c3 -5 8 -10 11 -10 2 0 4 5 4 10 0 6 -5 10 -11 10 -5 0
-7 -4 -4 -10z"/>
<path d="M8660 10450 c-16 -10 -22 -60 -6 -60 5 0 2 -8 -7 -18 -15 -17 -14
-19 14 -29 24 -9 28 -9 21 0 -16 20 -23 88 -11 103 13 16 10 17 -11 4z"/>
<path d="M8475 10440 c-3 -5 -1 -10 4 -10 6 0 11 5 11 10 0 6 -2 10 -4 10 -3
0 -8 -4 -11 -10z"/>
<path d="M8520 10420 c0 -5 5 -10 11 -10 5 0 7 5 4 10 -3 6 -8 10 -11 10 -2 0
-4 -4 -4 -10z"/>
<path d="M8170 10416 c0 -2 8 -10 18 -17 15 -13 16 -12 3 4 -13 16 -21 21 -21
13z"/>
<path d="M8446 10411 c-3 -5 -29 -17 -57 -26 -28 -9 -49 -19 -46 -21 5 -5 99
26 111 37 5 5 7 11 4 14 -3 4 -9 2 -12 -4z"/>
<path d="M8480 10413 c0 -6 18 -26 40 -43 22 -17 40 -27 40 -21 0 6 -4 11 -9
11 -5 0 -23 14 -40 32 -17 17 -31 27 -31 21z"/>
<path d="M3547 10373 c-20 -5 -13 -23 9 -23 9 0 12 5 8 12 -5 7 -1 9 13 6 12
-3 26 -2 32 2 13 7 -32 10 -62 3z"/>
<path d="M3625 10360 c-3 -5 1 -10 9 -10 8 0 18 5 21 10 3 6 -1 10 -9 10 -8 0
-18 -4 -21 -10z"/>
<path d="M8210 10358 c0 -16 96 -118 111 -118 7 0 8 -8 4 -17 -5 -14 -4 -15 6
-6 10 10 3 21 -34 54 -26 22 -47 44 -47 49 0 4 12 11 26 14 15 4 24 9 22 12
-3 2 -16 0 -30 -5 -19 -7 -29 -6 -42 7 -9 9 -16 13 -16 10z"/>
<path d="M3588 10338 c5 -5 16 -8 23 -6 8 3 3 7 -10 11 -17 4 -21 3 -13 -5z"/>
<path d="M4565 10300 c-32 -51 -84 -88 -182 -130 -100 -43 -175 -90 -201 -127
-22 -31 -32 -66 -57 -188 -9 -44 -18 -88 -21 -97 -3 -10 -1 -18 4 -18 6 0 12
10 16 23 10 43 70 88 200 152 138 67 161 83 191 128 16 25 88 297 79 297 -2 0
-15 -18 -29 -40z"/>
<path d="M3638 10323 c7 -3 16 -2 19 1 4 3 -2 6 -13 5 -11 0 -14 -3 -6 -6z"/>
<path d="M3782 10320 c-18 -4 -35 -10 -38 -13 -7 -7 71 2 111 13 l30 8 -35 0
c-19 0 -50 -4 -68 -8z"/>
<path d="M8650 10320 c0 -5 4 -10 9 -10 5 0 18 -3 28 -6 16 -5 16 -4 -1 10
-23 18 -36 20 -36 6z"/>
<path d="M8770 10316 c0 -2 7 -6 15 -10 8 -3 15 -1 15 4 0 6 -7 10 -15 10 -8
0 -15 -2 -15 -4z"/>
<path d="M3690 10290 c-18 -12 -2 -12 25 0 13 6 15 9 5 9 -8 0 -22 -4 -30 -9z"/>
<path d="M8598 10270 c6 -41 21 -46 71 -20 45 23 53 40 19 40 -13 0 -39 3 -59
6 -36 6 -36 6 -31 -26z"/>
<path d="M8590 10219 c0 -5 5 -7 10 -4 6 3 10 8 10 11 0 2 -4 4 -10 4 -5 0
-10 -5 -10 -11z"/>
<path d="M8685 10211 c-2 -5 4 -11 15 -14 11 -3 20 -2 20 3 0 12 -28 21 -35
11z"/>
<path d="M3502 10190 c-18 -11 -41 -20 -51 -20 -10 0 -18 -6 -18 -14 0 -10 16
-6 56 16 62 33 69 38 55 38 -5 0 -24 -9 -42 -20z"/>
<path d="M3697 10158 c8 -57 13 -61 13 -10 0 22 -4 43 -9 46 -5 4 -7 -12 -4
-36z"/>
<path d="M3978 10183 c12 -2 30 -2 40 0 9 3 -1 5 -23 4 -22 0 -30 -2 -17 -4z"/>
<path d="M8603 10172 c-3 -12 -9 -19 -14 -16 -5 3 -9 -2 -9 -11 0 -9 5 -13 10
-10 6 3 10 0 11 -7 1 -7 5 3 9 22 9 38 3 58 -7 22z"/>
<path d="M3888 10173 c6 -2 18 -2 25 0 6 3 1 5 -13 5 -14 0 -19 -2 -12 -5z"/>
<path d="M8360 10170 c8 -5 20 -10 25 -10 6 0 3 5 -5 10 -8 5 -19 10 -25 10
-5 0 -3 -5 5 -10z"/>
<path d="M8705 10133 c-3 -27 -8 -57 -10 -67 -2 -10 0 -15 4 -10 9 10 24 124
17 124 -3 0 -8 -21 -11 -47z"/>
<path d="M3796 10154 c-42 -15 -69 -34 -61 -42 3 -3 13 2 22 10 10 9 41 23 68
31 28 9 41 16 30 16 -11 0 -38 -7 -59 -15z"/>
<path d="M8488 10163 c6 -2 18 -2 25 0 6 3 1 5 -13 5 -14 0 -19 -2 -12 -5z"/>
<path d="M4851 10116 c-29 -30 -73 -34 -128 -11 -50 21 -55 19 -51 -22 l3 -38
59 3 c69 5 121 24 136 53 18 33 6 42 -19 15z"/>
<path d="M3420 10103 c0 -22 2 -25 10 -13 13 20 13 40 0 40 -5 0 -10 -12 -10
-27z"/>
<path d="M8587 10075 c-4 -22 -6 -53 -6 -70 1 -16 5 -3 10 30 10 67 6 102 -4
40z"/>
<path d="M6710 10090 c0 -5 4 -10 8 -10 5 0 9 -7 9 -15 0 -8 -5 -15 -11 -15
-6 0 -4 -5 4 -10 20 -13 80 -13 80 0 0 6 -3 10 -7 10 -5 0 -21 11 -37 25 -31
26 -46 31 -46 15z"/>
<path d="M3425 10060 c-3 -5 -1 -10 4 -10 6 0 11 5 11 10 0 6 -2 10 -4 10 -3
0 -8 -4 -11 -10z"/>
<path d="M3380 10046 c0 -9 5 -16 10 -16 6 0 10 4 10 9 0 6 -4 13 -10 16 -5 3
-10 -1 -10 -9z"/>
<path d="M8700 10011 c0 -17 4 -32 8 -35 4 -2 6 11 4 30 -5 42 -12 45 -12 5z"/>
<path d="M7802 9978 c3 -52 3 -52 46 -64 48 -14 50 -12 22 23 -11 14 -20 36
-20 49 0 20 -25 44 -45 44 -3 0 -5 -23 -3 -52z"/>
<path d="M3380 10000 c0 -5 5 -10 10 -10 6 0 10 5 10 10 0 6 -4 10 -10 10 -5
0 -10 -4 -10 -10z"/>
<path d="M5418 9974 c-24 -13 -27 -19 -24 -55 5 -50 7 -52 38 -40 16 6 28 20
31 38 4 15 9 38 13 51 8 27 -16 29 -58 6z"/>
<path d="M8640 9956 c25 -7 47 -11 49 -9 9 7 -6 12 -49 17 l-45 6 45 -14z"/>
<path d="M3920 9858 c0 -43 13 -78 25 -66 13 13 17 78 5 93 -21 25 -30 17 -30
-27z"/>
<path d="M7400 9861 c8 -6 26 -11 40 -11 14 0 20 -4 14 -8 -5 -4 -11 -24 -11
-45 0 -26 3 -35 11 -29 6 5 35 28 64 50 l54 42 -69 0 c-37 0 -79 3 -93 6 -20
4 -22 3 -10 -5z"/>
<path d="M7872 9820 c-13 -17 -63 -49 -115 -75 -51 -24 -100 -55 -110 -69 -20
-29 -47 -159 -47 -228 0 -58 24 -89 118 -151 37 -24 74 -52 82 -62 12 -15 11
-19 -9 -34 -12 -9 -45 -26 -73 -37 -85 -33 -115 -67 -138 -159 -37 -151 -23
-202 73 -265 40 -26 46 -34 36 -46 -12 -14 -19 -84 -9 -84 20 0 50 35 50 58
l0 27 27 -27 c33 -34 25 -45 -60 -83 -70 -31 -122 -67 -136 -94 -13 -23 -41
-158 -41 -194 0 -54 36 -101 120 -154 75 -48 110 -83 110 -110 0 -12 -43 -84
-95 -160 -116 -168 -158 -252 -181 -364 -21 -102 -14 -128 47 -184 l39 -35 0
-86 0 -87 26 39 c15 21 31 42 36 45 5 3 5 17 -1 33 -10 24 -9 26 9 16 29 -16
70 -74 70 -101 1 -35 14 -6 29 63 17 79 1 114 -81 172 -96 68 -138 106 -144
132 -6 24 -3 29 179 298 58 86 107 230 107 312 0 53 -2 59 -42 97 -24 22 -72
61 -108 86 -36 25 -66 54 -68 63 -2 12 23 29 93 63 54 27 103 58 112 72 9 13
27 68 39 121 34 138 21 164 -121 260 -60 39 -92 69 -84 76 2 2 38 21 79 41
119 59 140 85 165 205 30 141 20 164 -104 249 -50 34 -93 66 -96 71 -3 5 31
28 77 50 120 60 131 72 155 174 7 34 16 69 19 79 8 26 -8 20 -34 -13z"/>
<path d="M5208 9663 c7 -3 16 -2 19 1 4 3 -2 6 -13 5 -11 0 -14 -3 -6 -6z"/>
<path d="M3062 9649 c2 -6 8 -10 13 -10 5 0 11 4 13 10 2 6 -4 11 -13 11 -9 0
-15 -5 -13 -11z"/>
<path d="M5187 9611 c-9 -41 -7 -158 2 -189 6 -24 7 -24 49 15 43 38 43 38 46
116 2 43 0 74 -3 68 -4 -5 -21 -13 -39 -16 -27 -4 -34 -2 -41 17 -7 20 -8 19
-14 -11z"/>
<path d="M3038 9596 c-4 -17 -1 -23 9 -19 15 6 18 29 4 37 -5 3 -11 -5 -13
-18z"/>
<path d="M9297 9556 c-11 -8 -14 -17 -8 -20 5 -4 15 3 21 14 13 23 11 24 -13
6z"/>
<path d="M4535 9514 c-16 -8 -34 -19 -39 -25 -13 -12 -14 -118 -1 -122 5 -2
-2 -20 -17 -39 -26 -33 -67 -57 -242 -138 -106 -50 -143 -104 -170 -250 -9
-47 -19 -94 -23 -105 -5 -17 -4 -18 11 -6 9 7 16 19 16 26 0 25 90 92 167 125
110 47 183 92 183 112 0 9 12 26 26 37 21 16 32 43 53 123 21 83 30 103 46
107 11 2 23 8 27 15 10 15 10 156 1 156 -5 0 -21 -7 -38 -16z"/>
<path d="M6575 9508 c-10 -25 0 -44 24 -51 27 -7 27 13 2 44 -18 22 -20 22
-26 7z"/>
<path d="M2995 9484 c-16 -8 -35 -12 -43 -9 -12 4 -13 3 -2 -10 7 -8 17 -12
24 -8 6 4 3 -5 -7 -20 -21 -32 -12 -36 13 -5 18 23 67 29 120 14 23 -6 22 -5
-3 7 -15 7 -24 17 -20 21 5 5 -2 5 -14 2 -14 -5 -24 -2 -30 8 -8 14 -12 14
-38 0z m30 -14 c-3 -5 -14 -10 -23 -10 -15 0 -15 2 -2 10 20 13 33 13 25 0z"/>
<path d="M9095 9486 c-6 -6 -10 -22 -11 -36 -1 -19 4 -25 21 -25 16 0 21 5 17
18 -2 9 1 17 7 17 6 0 11 6 11 14 0 18 -33 26 -45 12z"/>
<path d="M9193 9485 c-3 -9 -3 -19 1 -22 3 -4 6 1 6 10 0 8 6 18 13 20 9 4 9
6 -1 6 -7 1 -15 -6 -19 -14z"/>
<path d="M9228 9486 c-19 -14 -24 -46 -8 -46 6 0 10 6 10 14 0 8 7 22 16 30
19 19 6 21 -18 2z"/>
<path d="M9161 9464 c0 -11 3 -14 6 -6 3 7 2 16 -1 19 -3 4 -6 -2 -5 -13z"/>
<path d="M2890 9450 c0 -5 5 -10 10 -10 6 0 10 5 10 10 0 6 -4 10 -10 10 -5 0
-10 -4 -10 -10z"/>
<path d="M2926 9446 c4 -9 -2 -16 -17 -18 -12 -2 -24 -10 -26 -18 -4 -13 -3
-13 6 0 5 8 11 12 13 10 25 -39 28 -53 17 -66 -8 -10 -8 -14 0 -14 16 0 25 48
11 65 -10 12 -9 16 3 21 16 6 12 34 -4 34 -4 0 -6 -6 -3 -14z"/>
<path d="M3140 9430 c0 -5 5 -10 11 -10 5 0 7 5 4 10 -3 6 -8 10 -11 10 -2 0
-4 -4 -4 -10z"/>
<path d="M9308 9433 c7 -3 16 -2 19 1 4 3 -2 6 -13 5 -11 0 -14 -3 -6 -6z"/>
<path d="M3259 9337 c-2 -48 -2 -92 -1 -97 6 -17 28 -11 52 15 13 14 21 25 17
25 -3 0 -15 -10 -27 -22 -11 -12 -23 -18 -27 -15 -14 14 -2 142 15 162 15 18
15 18 0 7 -13 -10 -17 -10 -21 0 -2 7 -6 -26 -8 -75z"/>
<path d="M9300 9410 c0 -5 5 -10 10 -10 6 0 10 -15 10 -32 0 -26 -3 -30 -11
-18 -9 13 -10 13 -6 0 2 -8 11 -14 20 -12 13 2 15 -6 14 -42 -2 -48 7 -53 16
-9 3 15 -1 40 -9 55 -8 15 -14 38 -14 53 0 16 -6 25 -15 25 -8 0 -15 -4 -15
-10z"/>
<path d="M3235 9400 c-3 -5 -1 -10 4 -10 6 0 11 5 11 10 0 6 -2 10 -4 10 -3 0
-8 -4 -11 -10z"/>
<path d="M2970 9385 c-13 -16 0 -21 16 -6 5 5 25 11 44 14 34 4 34 4 -6 5 -26
1 -46 -4 -54 -13z"/>
<path d="M2885 9370 c-4 -12 -5 -24 -2 -27 3 -2 8 5 12 17 4 12 5 24 2 27 -3
2 -8 -5 -12 -17z"/>
<path d="M2996 9371 c-4 -5 3 -7 14 -4 23 6 26 13 6 13 -8 0 -17 -4 -20 -9z"/>
<path d="M3080 9370 c-13 -8 -13 -10 2 -10 9 0 20 5 23 10 8 13 -5 13 -25 0z"/>
<path d="M3132 9354 c10 -10 20 -16 22 -13 3 3 -5 11 -17 18 -21 13 -21 12 -5
-5z"/>
<path d="M3015 9350 c-16 -7 -17 -9 -3 -9 9 -1 20 4 23 9 7 11 7 11 -20 0z"/>
<path d="M3125 9320 c-3 -5 -1 -10 4 -10 6 0 11 5 11 10 0 6 -2 10 -4 10 -3 0
-8 -4 -11 -10z"/>
<path d="M2780 9300 c0 -11 4 -20 8 -20 4 0 8 9 9 20 1 11 -2 20 -8 20 -5 0
-9 -9 -9 -20z"/>
<path d="M8329 9303 c-8 -47 -3 -66 19 -74 42 -16 53 -12 46 19 -4 15 -14 35
-22 45 -15 17 -41 23 -43 10z"/>
<path d="M9352 9210 c0 -19 2 -27 5 -17 2 9 2 25 0 35 -3 9 -5 1 -5 -18z"/>
<path d="M3506 9207 c3 -10 9 -15 12 -12 3 3 0 11 -7 18 -10 9 -11 8 -5 -6z"/>
<path d="M3470 9150 c-8 -5 -10 -10 -5 -10 6 0 17 5 25 10 8 5 11 10 5 10 -5
0 -17 -5 -25 -10z"/>
<path d="M9201 9134 c0 -11 3 -14 6 -6 3 7 2 16 -1 19 -3 4 -6 -2 -5 -13z"/>
<path d="M8832 9120 c0 -14 2 -19 5 -12 2 6 2 18 0 25 -3 6 -5 1 -5 -13z"/>
<path d="M3586 9113 c-6 -14 -5 -15 5 -6 7 7 10 15 7 18 -3 3 -9 -2 -12 -12z"/>
<path d="M3400 9098 c0 -9 5 -20 10 -23 13 -8 13 5 0 25 -8 13 -10 13 -10 -2z"/>
<path d="M9412 9068 c-1 -18 -4 -54 -8 -80 -3 -29 -2 -48 4 -48 8 0 22 89 22
141 0 33 -16 20 -18 -13z"/>
<path d="M8840 9070 c0 -8 5 -22 10 -30 9 -13 10 -13 10 0 0 8 -5 22 -10 30
-9 13 -10 13 -10 0z"/>
<path d="M9380 9060 c0 -11 5 -20 10 -20 6 0 10 9 10 20 0 11 -4 20 -10 20 -5
0 -10 -9 -10 -20z"/>
<path d="M3478 9063 c7 -3 16 -2 19 1 4 3 -2 6 -13 5 -11 0 -14 -3 -6 -6z"/>
<path d="M8751 9034 c0 -11 3 -14 6 -6 3 7 2 16 -1 19 -3 4 -6 -2 -5 -13z"/>
<path d="M2974 8971 c-63 -34 -147 -57 -152 -42 -6 17 -20 13 -25 -6 -4 -17
-5 -17 -6 0 0 9 -5 17 -11 17 -5 0 -9 -5 -7 -12 1 -7 -2 -13 -8 -13 -35 -5
-44 -18 -41 -60 2 -24 6 -48 10 -53 3 -6 2 -22 -4 -37 -14 -37 -12 -52 4 -30
13 18 14 18 20 -3 4 -12 12 -22 17 -22 6 0 7 -5 3 -12 -4 -7 -3 -8 4 -4 9 5 8
14 -4 31 -15 23 -15 23 33 30 27 3 55 11 63 16 15 10 -18 8 -91 -7 -25 -5 -27
-2 -33 42 -11 84 -9 94 20 94 50 0 186 41 232 70 60 38 43 39 -24 1z"/>
<path d="M3077 8965 c3 -22 7 -42 9 -44 8 -9 2 45 -6 64 -7 14 -8 8 -3 -20z"/>
<path d="M9382 8980 c0 -14 2 -19 5 -12 2 6 2 18 0 25 -3 6 -5 1 -5 -13z"/>
<path d="M7390 8978 c0 -18 -20 -26 -20 -9 0 5 -17 7 -37 5 -111 -11 -135 -11
-122 -3 11 7 10 9 -5 9 -22 0 -137 -62 -156 -85 -14 -17 -42 -126 -35 -134 3
-2 15 5 28 16 65 58 177 99 301 110 63 5 76 9 76 23 0 24 -29 90 -30 68z"/>
<path d="M9170 8925 c-11 -13 -10 -14 4 -9 9 3 16 10 16 15 0 13 -6 11 -20 -6z"/>
<path d="M3090 8889 c0 -13 5 -31 10 -39 7 -11 8 -5 4 20 -8 43 -14 51 -14 19z"/>
<path d="M9330 8849 c0 -5 5 -7 10 -4 6 3 10 8 10 11 0 2 -4 4 -10 4 -5 0 -10
-5 -10 -11z"/>
<path d="M9220 8830 c-6 -11 -8 -20 -6 -20 3 0 10 9 16 20 6 11 8 20 6 20 -3
0 -10 -9 -16 -20z"/>
<path d="M3077 8834 c-3 -4 -46 -17 -94 -30 -48 -13 -68 -21 -43 -17 25 3 58
6 73 6 20 0 24 3 15 8 -9 6 -8 9 8 9 17 0 69 29 53 30 -3 0 -9 -3 -12 -6z"/>
<path d="M9330 8815 c-8 -9 -8 -15 -2 -15 12 0 26 19 19 26 -2 2 -10 -2 -17
-11z"/>
<path d="M9273 8796 c-16 -15 -20 -25 -13 -36 8 -13 10 -12 10 4 0 10 8 25 17
32 10 7 16 14 13 17 -3 2 -15 -5 -27 -17z"/>
<path d="M5446 8775 c-9 -26 -7 -32 5 -12 6 10 9 21 6 23 -2 3 -7 -2 -11 -11z"/>
<path d="M2793 8733 c9 -2 25 -2 35 0 9 3 1 5 -18 5 -19 0 -27 -2 -17 -5z"/>
<path d="M9185 8721 c-6 -11 13 -26 22 -17 4 3 1 6 -6 6 -7 0 -9 5 -6 10 3 6
4 10 1 10 -3 0 -7 -4 -11 -9z"/>
<path d="M2712 8703 c-32 -6 -16 -23 21 -22 20 1 25 3 13 6 -15 4 -16 7 -5 14
14 9 10 9 -29 2z"/>
<path d="M9503 8693 c15 -2 27 -9 27 -14 0 -13 17 -11 23 4 3 8 -8 12 -37 13
-23 1 -29 0 -13 -3z"/>
<path d="M9448 8683 c7 -3 16 -2 19 1 4 3 -2 6 -13 5 -11 0 -14 -3 -6 -6z"/>
<path d="M2725 8650 c-3 -5 -2 -10 4 -10 5 0 13 5 16 10 3 6 2 10 -4 10 -5 0
-13 -4 -16 -10z"/>
<path d="M9483 8648 c-24 -5 -43 -13 -43 -18 0 -5 21 -3 46 5 43 13 74 11 74
-4 0 -3 10 -12 21 -20 l22 -13 -22 31 c-24 33 -31 34 -98 19z"/>
<path d="M7973 8561 l2 -81 43 0 c32 0 49 6 65 23 38 40 97 108 97 113 0 3
-21 2 -48 -2 -41 -5 -97 3 -147 22 -11 5 -13 -10 -12 -75z"/>
<path d="M5665 8589 c56 -51 99 -119 125 -195 11 -32 22 -65 25 -72 3 -9 15
-7 47 9 55 28 59 34 43 79 -23 64 -45 101 -92 151 -42 45 -63 54 -63 28 0 -6
5 -7 10 -4 6 3 10 1 10 -4 0 -6 -7 -11 -15 -11 -8 0 -15 4 -15 9 0 5 -7 12
-16 15 -12 4 -15 2 -10 -9 7 -20 6 -19 -32 8 -17 13 -29 27 -25 30 3 4 -3 7
-15 7 -18 0 -15 -6 23 -41z"/>
<path d="M5730 8620 c0 -5 5 -10 11 -10 5 0 7 5 4 10 -3 6 -8 10 -11 10 -2 0
-4 -4 -4 -10z"/>
<path d="M5044 8594 c-55 -37 -82 -63 -116 -112 -27 -39 -29 -48 -23 -93 8
-60 19 -69 39 -31 25 48 128 135 201 171 39 18 72 35 74 36 1 2 -9 16 -23 32
-15 15 -24 21 -21 12 5 -13 -1 -18 -24 -21 -17 -3 -31 -1 -31 4 0 5 -9 6 -20
3 -21 -7 -28 10 -7 18 7 3 8 6 1 6 -6 1 -29 -11 -50 -25z"/>
<path d="M9346 8595 c26 -26 44 -35 25 -12 -6 8 -7 18 -3 22 4 5 2 5 -5 1 -6
-3 -14 -2 -18 4 -3 5 -10 10 -15 10 -5 0 2 -11 16 -25z"/>
<path d="M9417 8603 c4 -9 21 -30 40 -46 18 -16 31 -33 30 -39 -1 -6 6 -12 16
-13 9 -2 17 0 17 5 0 4 9 6 20 3 11 -3 20 -9 20 -14 0 -5 7 -9 15 -9 31 0 13
16 -53 48 -42 19 -74 42 -82 57 -15 28 -33 34 -23 8z"/>
<path d="M9390 8598 c0 -18 29 -57 30 -41 0 6 -5 15 -10 18 -6 4 -8 10 -5 15
3 5 1 11 -5 15 -5 3 -10 0 -10 -7z"/>
<path d="M9314 8588 c6 -20 -10 -34 -17 -16 -4 9 -6 10 -6 1 -1 -6 3 -14 9
-18 5 -3 7 -11 4 -18 -2 -7 10 -26 28 -42 l32 -30 -27 33 c-22 27 -25 37 -17
53 8 14 8 24 0 37 -11 16 -11 16 -6 0z"/>
<path d="M5632 8545 c-14 -31 -16 -75 -3 -75 19 0 38 40 33 70 -5 37 -15 38
-30 5z"/>
<path d="M9382 8520 c0 -14 2 -19 5 -12 2 6 2 18 0 25 -3 6 -5 1 -5 -13z"/>
<path d="M9280 8528 c0 -3 7 -19 15 -34 8 -16 15 -22 15 -14 -1 8 -7 24 -15
34 -8 11 -15 17 -15 14z"/>
<path d="M5340 8518 c0 -5 59 -131 87 -187 11 -21 37 -46 65 -62 l47 -28 21
33 c26 43 25 77 -2 108 -31 34 -60 48 -89 42 -20 -4 -20 -3 -5 4 16 7 11 13
-35 36 -30 16 -62 35 -71 44 -10 8 -18 13 -18 10z m170 -129 c0 -5 -4 -9 -8
-9 -5 0 -9 7 -9 15 0 8 4 12 9 9 4 -3 8 -9 8 -15z m7 -51 c-3 -8 -6 -5 -6 6
-1 11 2 17 5 13 3 -3 4 -12 1 -19z m13 -38 c0 -5 -5 -10 -11 -10 -5 0 -7 5 -4
10 3 6 8 10 11 10 2 0 4 -4 4 -10z"/>
<path d="M2755 8491 l-40 -7 46 -4 c34 -4 45 -2 42 8 -3 6 -6 11 -7 11 0 -1
-19 -5 -41 -8z"/>
<path d="M3167 8494 c-3 -3 3 -33 13 -67 10 -34 23 -83 30 -109 11 -41 16 -48
38 -48 19 0 22 3 13 13 -6 8 -9 16 -6 18 2 3 6 40 8 82 3 70 2 79 -16 89 -27
14 -75 27 -80 22z"/>
<path d="M2635 8479 c-5 -7 5 -8 32 -3 51 9 54 14 10 14 -20 0 -39 -5 -42 -11z"/>
<path d="M2688 8463 c6 -2 18 -2 25 0 6 3 1 5 -13 5 -14 0 -19 -2 -12 -5z"/>
<path d="M3315 8371 c0 -36 -3 -79 -8 -96 l-7 -30 17 30 c28 51 41 108 30 132
-20 45 -32 32 -32 -36z"/>
<path d="M4451 8421 c-3 -35 -82 -171 -187 -321 -214 -307 -251 -379 -294
-569 -20 -91 -20 -112 0 -59 21 57 94 203 107 213 18 15 198 278 253 370 27
44 55 98 64 120 27 70 67 227 63 244 -3 10 -5 11 -6 2z"/>
<path d="M9083 8370 c-40 -24 -41 -39 -4 -104 33 -57 77 -102 133 -135 35 -21
42 -22 93 -11 30 6 55 13 55 14 0 2 -21 16 -48 33 -54 33 -129 118 -161 181
-12 23 -25 42 -29 42 -4 0 -22 -9 -39 -20z m47 -11 c0 -17 -3 -19 -13 -10 -8
6 -17 8 -20 4 -4 -3 -7 -1 -7 5 0 10 15 19 33 21 4 1 7 -9 7 -20z"/>
<path d="M9260 8233 c0 -6 8 -17 18 -24 16 -13 16 -13 2 6 -8 11 -16 22 -17
24 -2 2 -3 0 -3 -6z"/>
<path d="M3195 8219 c-4 -6 -5 -12 -2 -15 2 -3 7 2 10 11 7 17 1 20 -8 4z"/>
<path d="M4492 8177 c6 -28 8 -104 6 -167 l-4 -115 29 -24 c15 -13 30 -21 32
-19 3 2 -5 22 -16 44 -33 69 -36 203 -4 284 3 10 -5 21 -23 32 l-29 17 9 -52z
m15 -269 c-3 -8 -6 -5 -6 6 -1 11 2 17 5 13 3 -3 4 -12 1 -19z"/>
<path d="M2859 8200 c-1 -8 -1 -19 0 -23 1 -5 2 -31 3 -59 l1 -50 44 5 c24 2
45 6 47 8 1 2 25 33 52 69 l50 65 -98 0 c-80 0 -98 -3 -99 -15z"/>
<path d="M2732 8171 c-7 -31 -7 -38 3 -35 7 3 12 13 10 22 -1 9 7 25 19 34
l21 18 -21 0 c-17 0 -24 -9 -32 -39z"/>
<path d="M7830 8185 c0 -9 -7 -29 -15 -45 -10 -19 -16 -65 -18 -124 -3 -84 -2
-94 12 -86 27 14 59 54 75 91 14 34 13 40 -12 107 -26 68 -42 90 -42 57z"/>
<path d="M8981 8179 c-1 -25 17 -48 49 -63 8 -4 3 3 -12 16 -14 13 -28 34 -31
48 l-4 25 -2 -26z"/>
<path d="M9320 8180 c0 -5 5 -10 11 -10 5 0 7 5 4 10 -3 6 -8 10 -11 10 -2 0
-4 -4 -4 -10z"/>
<path d="M3200 8171 c0 -6 4 -13 10 -16 6 -3 7 1 4 9 -7 18 -14 21 -14 7z"/>
<path d="M2725 8110 c-3 -5 -1 -10 4 -10 6 0 11 5 11 10 0 6 -2 10 -4 10 -3 0
-8 -4 -11 -10z"/>
<path d="M8603 8075 c0 -22 2 -30 4 -17 2 12 2 30 0 40 -3 9 -5 -1 -4 -23z"/>
<path d="M2730 8075 c7 -8 18 -15 24 -14 7 0 6 2 -2 6 -6 2 -10 9 -6 14 3 5
-2 9 -12 9 -13 0 -14 -3 -4 -15z"/>
<path d="M2775 8070 c3 -5 8 -10 11 -10 2 0 4 5 4 10 0 6 -5 10 -11 10 -5 0
-7 -4 -4 -10z"/>
<path d="M5469 7993 c19 -36 71 -153 71 -161 0 -15 82 -85 139 -120 l53 -33
-4 66 c-5 79 -21 99 -155 187 -51 34 -93 65 -93 70 0 4 -5 8 -10 8 -7 0 -7 -6
-1 -17z"/>
<path d="M3324 7964 c-12 -29 -13 -43 -3 -71 15 -46 65 -95 120 -115 42 -17
43 -17 23 0 -17 15 -21 29 -22 80 0 51 3 62 17 62 10 1 4 7 -14 17 -16 9 -43
27 -58 39 -38 32 -45 30 -63 -12z"/>
<path d="M3670 7940 c-8 -5 -10 -10 -5 -10 12 0 14 -59 3 -76 -4 -6 4 -24 18
-39 l26 -28 47 17 c25 10 61 23 79 29 17 6 32 16 32 23 0 15 -48 53 -97 78
-36 18 -80 21 -103 6z"/>
<path d="M2733 7883 c9 -2 25 -2 35 0 9 3 1 5 -18 5 -19 0 -27 -2 -17 -5z"/>
<path d="M3537 7878 c7 -13 5 -129 -3 -137 -2 -2 15 -15 38 -28 l41 -24 23 22
c28 26 39 71 24 99 -15 28 -88 80 -112 80 -13 0 -17 -4 -11 -12z"/>
<path d="M2720 7860 c0 -5 5 -10 10 -10 6 0 10 5 10 10 0 6 -4 10 -10 10 -5 0
-10 -4 -10 -10z"/>
<path d="M2770 7860 c0 -5 7 -7 15 -4 8 4 15 8 15 10 0 2 -7 4 -15 4 -8 0 -15
-4 -15 -10z"/>
<path d="M2725 7830 c-8 -13 5 -13 25 0 13 8 13 10 -2 10 -9 0 -20 -4 -23 -10z"/>
<path d="M9531 7804 c0 -11 3 -14 6 -6 3 7 2 16 -1 19 -3 4 -6 -2 -5 -13z"/>
<path d="M9550 7806 c0 -8 -3 -23 -7 -33 -6 -17 -6 -17 10 -1 19 18 23 48 7
48 -5 0 -10 -6 -10 -14z"/>
<path d="M3369 7749 l-24 -20 28 17 c15 9 27 18 27 20 0 8 -8 4 -31 -17z"/>
<path d="M6600 7755 c0 -9 -7 -32 -16 -53 -10 -23 -16 -72 -17 -134 -2 -83 0
-95 13 -88 37 20 90 100 90 137 0 10 -12 48 -27 85 -27 65 -43 85 -43 53z"/>
<path d="M6280 7726 c0 -46 21 -47 70 -6 l34 30 -29 0 c-17 0 -40 3 -52 6 -21
6 -23 3 -23 -30z"/>
<path d="M3385 7695 c17 -14 34 -25 39 -25 6 0 -5 11 -24 25 -43 32 -54 32
-15 0z"/>
<path d="M7812 7629 c-3 -43 -38 -139 -63 -172 -11 -16 -19 -30 -17 -31 1 -1
18 -8 36 -15 43 -18 57 -5 82 76 30 98 26 126 -20 160 -13 10 -16 7 -18 -18z"/>
<path d="M2640 7564 c0 -8 5 -12 10 -9 6 3 10 10 10 16 0 5 -4 9 -10 9 -5 0
-10 -7 -10 -16z"/>
<path d="M8529 7523 c-13 -16 -12 -17 4 -4 9 7 17 15 17 17 0 8 -8 3 -21 -13z"/>
<path d="M4747 7441 c-4 -32 -16 -79 -27 -105 -11 -26 -20 -49 -20 -51 0 -2
14 -8 30 -14 27 -9 32 -7 45 13 39 59 37 178 -3 203 -18 11 -20 7 -25 -46z"/>
<path d="M3353 7385 c43 -158 67 -196 161 -259 54 -36 81 -47 58 -24 -14 14
-16 32 -2 23 5 -3 7 0 5 7 -10 26 -11 88 -2 91 5 1 -29 27 -77 56 -47 29 -100
69 -117 89 -21 25 -30 30 -26 17z"/>
<path d="M4434 7337 c-10 -23 -18 -45 -16 -49 1 -5 -1 -8 -5 -8 -5 0 -8 -33
-8 -74 0 -41 3 -72 8 -69 4 2 7 29 7 58 0 53 1 55 36 70 28 11 35 19 29 32 -3
10 -9 30 -12 46 -9 42 -18 41 -39 -6z"/>
<path d="M2751 7324 c0 -11 3 -14 6 -6 3 7 2 16 -1 19 -3 4 -6 -2 -5 -13z"/>
<path d="M2772 7307 c-14 -40 -15 -47 -3 -47 9 0 26 69 19 76 -2 2 -10 -11
-16 -29z"/>
<path d="M3642 7280 c0 -14 2 -19 5 -12 2 6 2 18 0 25 -3 6 -5 1 -5 -13z"/>
<path d="M5652 7225 c59 -136 98 -208 132 -245 34 -38 55 -53 40 -28 -4 7 -3
8 5 4 6 -4 9 -11 7 -15 -6 -9 29 -63 36 -56 12 13 -14 99 -42 140 -24 35 -100
122 -178 205 -3 3 -3 1 0 -5z m153 -205 c3 -13 10 -27 16 -31 6 -3 7 -9 3 -12
-5 -3 -15 1 -22 9 -7 8 -10 14 -5 14 4 0 -2 7 -13 15 -16 13 -16 14 -1 9 14
-5 16 -2 11 12 -4 11 -4 16 0 13 4 -4 9 -17 11 -29z"/>
<path d="M3668 7161 c3 -14 9 -31 13 -37 5 -6 5 -14 1 -18 -10 -11 -9 -30 3
-38 6 -5 5 -8 -4 -8 -23 0 5 -26 67 -61 l56 -31 18 22 c41 51 9 102 -104 166
l-55 31 5 -26z"/>
<path d="M5618 7158 c-13 -16 -15 -25 -7 -35 8 -9 8 -21 1 -43 -10 -27 -1 -43
12 -22 8 14 24 122 17 122 -3 0 -14 -10 -23 -22z"/>
<path d="M3390 7135 c13 -14 26 -25 28 -25 3 0 -5 11 -18 25 -13 14 -26 25
-28 25 -3 0 5 -11 18 -25z"/>
<path d="M5865 7039 c-4 -6 -5 -13 -2 -16 7 -7 27 6 27 18 0 12 -17 12 -25 -2z"/>
<path d="M2883 6843 c-3 -8 -3 -17 1 -20 3 -4 6 2 7 13 0 16 2 15 10 -5 l9
-24 25 23 c30 28 24 41 -7 14 -17 -15 -20 -16 -16 -3 8 20 -22 22 -29 2z"/>
<path d="M2953 6834 c-13 -14 -23 -29 -23 -33 0 -5 -8 -11 -18 -14 -11 -2 -21
-14 -25 -26 -3 -11 -1 -19 4 -15 5 3 9 13 9 22 0 13 2 13 15 -4 21 -27 18 -51
-7 -68 -12 -9 -20 -18 -17 -20 3 -3 41 -7 85 -9 56 -3 93 -11 123 -27 24 -12
45 -19 48 -16 3 3 6 22 7 43 1 36 -1 38 -43 52 -24 7 -46 10 -50 5 -3 -5 -23
-9 -43 -10 -37 0 -38 0 -20 20 l17 21 -25 -20 c-14 -11 -28 -24 -32 -30 -10
-14 -14 -5 -22 42 -5 37 -3 44 24 70 29 27 38 44 23 42 -5 -1 -18 -12 -30 -25z"/>
<path d="M3031 6824 c0 -11 3 -14 6 -6 3 7 2 16 -1 19 -3 4 -6 -2 -5 -13z"/>
<path d="M7702 6792 c-22 -33 -22 -36 -6 -54 28 -30 134 -77 189 -83 46 -5 53
-3 90 30 l40 35 -38 0 c-64 0 -215 62 -247 101 -3 3 -15 -10 -28 -29z"/>
<path d="M8180 6826 c0 -2 8 -10 18 -17 15 -13 16 -12 3 4 -13 16 -21 21 -21
13z"/>
<path d="M3030 6760 c0 -5 5 -10 11 -10 5 0 7 5 4 10 -3 6 -8 10 -11 10 -2 0
-4 -4 -4 -10z"/>
<path d="M9015 6749 c-4 -6 -5 -12 -2 -15 2 -3 7 2 10 11 7 17 1 20 -8 4z"/>
<path d="M8960 6710 c-6 -11 -16 -17 -22 -14 -6 4 -8 3 -5 -3 3 -5 -3 -33 -13
-62 -24 -62 -26 -138 -4 -169 8 -12 12 -27 8 -34 -5 -7 -3 -8 5 -3 8 5 30 -11
62 -45 27 -29 48 -55 45 -57 -2 -2 -11 3 -19 12 -22 21 -30 19 -22 -7 6 -17 4
-20 -9 -15 -9 4 -16 2 -16 -4 0 -13 56 -5 75 11 10 9 -1 24 -58 80 l-71 68 0
69 c0 56 5 81 28 126 29 61 39 67 55 40 6 -10 11 -13 11 -7 0 12 -20 34 -32
34 -4 0 -12 -9 -18 -20z"/>
<path d="M9130 6689 c0 -5 5 -7 10 -4 6 3 10 8 10 11 0 2 -4 4 -10 4 -5 0 -10
-5 -10 -11z"/>
<path d="M9175 6690 c-3 -6 1 -7 9 -4 18 7 21 14 7 14 -6 0 -13 -4 -16 -10z"/>
<path d="M9020 6671 c0 -5 5 -13 10 -16 6 -3 10 -2 10 4 0 5 -4 13 -10 16 -5
3 -10 2 -10 -4z"/>
<path d="M9118 6663 c6 -2 12 -11 12 -18 0 -18 -48 -25 -61 -8 -25 29 -20 2 9
-49 51 -90 79 -239 47 -252 -9 -3 -15 0 -15 10 0 8 4 13 9 9 9 -5 9 10 1 65
-1 8 -7 -7 -14 -35 -14 -56 -5 -81 22 -64 10 5 42 18 72 28 41 13 56 23 58 39
6 38 -27 146 -58 189 -16 24 -27 49 -24 56 3 8 -3 20 -13 27 -15 12 -16 12 -5
0 22 -25 13 -34 -11 -12 -13 12 -27 22 -33 21 -5 0 -3 -3 4 -6z"/>
<path d="M8346 6651 c-6 -9 41 -57 48 -50 2 2 2 16 -1 32 -5 26 -35 38 -47 18z"/>
<path d="M3030 6630 c-21 -7 -21 -8 -5 -9 11 0 27 4 35 9 18 11 5 11 -30 0z"/>
<path d="M5150 6633 c-31 -4 -80 -36 -80 -52 0 -4 35 -6 78 -7 57 -1 88 -6
121 -22 24 -12 47 -19 51 -17 4 3 10 18 12 35 6 41 -13 54 -78 54 -30 0 -54 4
-54 8 0 4 -3 7 -7 6 -5 0 -24 -3 -43 -5z"/>
<path d="M5671 6469 c-6 -17 -9 -35 -6 -39 10 -16 100 -40 151 -40 67 0 81 6
100 41 l15 29 -73 0 c-64 1 -98 8 -159 34 -13 5 -19 -1 -28 -25z"/>
<path d="M9071 6483 c-1 -12 -5 -25 -11 -28 -23 -14 -3 -115 24 -115 10 0 7
44 -5 60 -9 12 -10 11 -6 -8 3 -12 1 -20 -4 -16 -14 8 -11 50 5 63 11 9 15 9
18 -1 3 -9 9 -6 16 9 10 19 9 21 -11 17 -12 -2 -16 -2 -9 2 6 3 12 10 12 15 0
6 -4 8 -9 5 -5 -4 -12 0 -14 6 -3 7 -6 3 -6 -9z"/>
<path d="M3152 6444 c10 -10 20 -16 22 -13 3 3 -5 11 -17 18 -21 13 -21 12 -5
-5z"/>
<path d="M7289 6433 l-24 -28 28 24 c15 14 27 26 27 28 0 8 -8 1 -31 -24z"/>
<path d="M3070 6425 c0 -8 5 -15 10 -15 6 0 10 7 10 15 0 8 -4 15 -10 15 -5 0
-10 -7 -10 -15z"/>
<path d="M3150 6351 c0 -64 3 -73 27 -96 15 -14 30 -25 33 -25 10 0 6 145 -5
156 -6 6 -20 16 -33 23 -22 12 -22 11 -22 -58z"/>
<path d="M3570 6395 c-16 -19 -1 -19 24 0 16 12 17 15 4 15 -8 0 -21 -7 -28
-15z"/>
<path d="M8919 6394 c15 -11 26 -13 33 -6 6 6 6 12 -3 17 -8 5 -10 4 -5 -3 4
-7 3 -12 -3 -12 -5 0 -13 5 -16 10 -3 6 -11 10 -18 10 -6 0 -1 -7 12 -16z"/>
<path d="M3235 6379 c-4 -6 -5 -12 -2 -15 2 -3 7 2 10 11 7 17 1 20 -8 4z"/>
<path d="M3690 6370 c0 -5 7 -10 15 -10 8 0 15 5 15 10 0 6 -7 10 -15 10 -8 0
-15 -4 -15 -10z"/>
<path d="M8960 6360 c0 -5 5 -10 10 -10 6 0 10 5 10 10 0 6 -4 10 -10 10 -5 0
-10 -4 -10 -10z"/>
<path d="M3259 6343 c-23 -5 -40 -46 -27 -64 8 -11 9 -10 4 4 -6 19 9 24 18 5
3 -7 3 -3 0 9 -3 14 1 25 13 32 20 11 16 19 -8 14z"/>
<path d="M8348 6313 c7 -3 16 -2 19 1 4 3 -2 6 -13 5 -11 0 -14 -3 -6 -6z"/>
<path d="M4449 6261 c-2 -28 -1 -51 4 -51 4 0 7 10 7 23 0 13 5 28 12 35 10
10 9 16 -4 28 -15 15 -16 12 -19 -35z"/>
<path d="M8316 6299 c-13 -38 -24 -91 -18 -85 9 10 32 89 27 95 -3 2 -7 -2 -9
-10z"/>
<path d="M3240 6238 c0 -19 2 -20 10 -8 13 19 13 30 0 30 -5 0 -10 -10 -10
-22z"/>
<path d="M3137 6239 c7 -7 15 -10 18 -7 3 3 -2 9 -12 12 -14 6 -15 5 -6 -5z"/>
<path d="M8662 6189 c13 -38 17 -280 5 -321 l-7 -28 52 0 c48 1 88 16 88 34 0
4 12 18 26 31 23 21 26 33 30 109 4 71 2 86 -10 86 -10 0 -14 -10 -14 -31 1
-20 4 -26 9 -17 6 9 9 4 9 -15 0 -16 -3 -26 -7 -24 -5 3 -9 -5 -10 -16 -1 -12
-6 -40 -11 -62 -9 -37 -10 -34 -11 37 -1 81 -18 144 -53 204 -22 38 -37 40
-17 2 12 -23 12 -23 -9 -5 -15 14 -21 15 -24 5 -3 -8 -13 -3 -31 16 l-26 28
11 -33z"/>
<path d="M8340 6200 c-18 -12 -2 -12 25 0 13 6 15 9 5 9 -8 0 -22 -4 -30 -9z"/>
<path d="M4450 6166 c0 -8 4 -17 9 -20 5 -4 7 3 4 14 -6 23 -13 26 -13 6z"/>
<path d="M8360 6120 c-18 -12 -2 -12 25 0 13 6 15 9 5 9 -8 0 -22 -4 -30 -9z"/>
<path d="M4245 6090 c10 -11 20 -20 22 -20 2 0 -2 9 -9 20 -7 11 -17 20 -22
20 -5 0 -1 -9 9 -20z"/>
<path d="M8357 6062 c29 -29 73 -46 58 -22 -4 6 -10 8 -15 5 -4 -3 -13 2 -21
11 -7 8 -22 20 -33 26 -13 7 -10 0 11 -20z"/>
<path d="M8657 5969 c4 -13 8 -18 11 -10 2 7 -1 18 -6 23 -8 8 -9 4 -5 -13z"/>
<path d="M8650 5896 c0 -31 6 -34 13 -6 3 11 1 23 -4 26 -5 3 -9 -6 -9 -20z"/>
<path d="M6477 5880 c-14 -50 -7 -141 13 -189 17 -38 30 -52 65 -69 25 -12 45
-18 45 -14 -1 4 -9 32 -20 62 -13 37 -20 85 -21 145 -1 50 -3 82 -6 73 -3 -12
-14 -18 -33 -18 -19 0 -30 6 -32 18 -3 13 -5 11 -11 -8z"/>
<path d="M8647 5829 c7 -7 15 -10 18 -7 3 3 -2 9 -12 12 -14 6 -15 5 -6 -5z"/>
<path d="M3591 5728 c-7 -27 -11 -51 -8 -54 2 -3 8 11 11 31 5 26 12 35 26 35
21 0 18 25 -4 33 -8 3 -17 -12 -25 -45z"/>
<path d="M4409 5763 c-13 -16 -12 -17 4 -4 9 7 17 15 17 17 0 8 -8 3 -21 -13z"/>
<path d="M8507 5715 c-18 -26 -13 -32 12 -16 15 10 25 41 13 41 -4 0 -15 -12
-25 -25z"/>
<path d="M8627 5726 c-4 -10 -7 -25 -6 -34 0 -11 4 -9 10 7 5 13 8 29 6 35 -2
5 -6 2 -10 -8z"/>
<path d="M8570 5720 c0 -5 4 -10 9 -10 5 0 14 -14 20 -31 6 -17 15 -28 21 -24
5 3 10 8 10 11 0 3 -4 2 -10 -1 -5 -3 -10 2 -10 12 -1 29 -40 72 -40 43z"/>
<path d="M4359 5675 c-9 -25 -13 -42 -8 -40 9 6 33 75 27 80 -2 2 -11 -16 -19
-40z"/>
<path d="M4510 5682 c-3 -173 -10 -216 -54 -323 -5 -11 2 -18 29 -26 34 -11
35 -10 35 14 0 35 15 58 55 83 32 20 35 26 35 68 0 94 -44 197 -64 147 -8 -21
-23 -19 -29 4 -3 13 1 21 12 23 14 3 14 4 -1 10 -10 4 -18 4 -18 0z"/>
<path d="M8480 5661 c0 -25 6 -27 13 -6 4 8 2 17 -3 20 -6 4 -10 -3 -10 -14z"/>
<path d="M4443 5653 c9 -2 23 -2 30 0 6 3 -1 5 -18 5 -16 0 -22 -2 -12 -5z"/>
<path d="M4370 5625 c-8 -9 -8 -15 -2 -15 12 0 26 19 19 26 -2 2 -10 -2 -17
-11z"/>
<path d="M6770 5628 c-1 -2 -1 -45 -2 -97 -1 -77 2 -96 16 -106 9 -7 16 -17
16 -24 0 -6 5 -11 10 -11 6 0 10 24 10 53 0 32 6 61 16 75 15 22 14 25 -21 67
-32 40 -44 51 -45 43z"/>
<path d="M3831 5564 c0 -11 3 -14 6 -6 3 7 2 16 -1 19 -3 4 -6 -2 -5 -13z"/>
<path d="M5339 5553 c0 -5 -2 -18 -3 -31 -2 -12 2 -26 8 -31 13 -10 86 -2 86
9 0 24 -88 75 -91 53z"/>
<path d="M7688 5363 c7 -3 16 -2 19 1 4 3 -2 6 -13 5 -11 0 -14 -3 -6 -6z"/>
<path d="M7625 5340 c-8 -13 5 -13 25 0 13 8 13 10 -2 10 -9 0 -20 -4 -23 -10z"/>
<path d="M4020 5330 c0 -5 9 -10 20 -10 11 0 20 5 20 10 0 6 -9 10 -20 10 -11
0 -20 -4 -20 -10z"/>
<path d="M4171 5328 c-1 -12 6 -18 19 -18 12 0 20 7 20 16 0 13 -3 14 -14 5
-11 -9 -15 -9 -19 1 -4 8 -6 7 -6 -4z"/>
<path d="M4580 5323 c-14 -9 -29 -23 -33 -30 -11 -18 -27 -16 -27 2 0 18 -26
20 -36 3 -5 -7 -3 -8 5 -4 7 5 18 1 25 -10 12 -16 16 -15 55 16 37 30 47 40
38 40 -1 0 -14 -8 -27 -17z"/>
<path d="M7468 5333 c7 -3 16 -2 19 1 4 3 -2 6 -13 5 -11 0 -14 -3 -6 -6z"/>
<path d="M4168 5293 c7 -3 16 -2 19 1 4 3 -2 6 -13 5 -11 0 -14 -3 -6 -6z"/>
<path d="M7482 5283 c-18 -8 -31 -17 -29 -19 2 -2 21 5 43 16 21 10 35 19 29
19 -5 0 -25 -7 -43 -16z"/>
<path d="M6708 5200 c2 -16 6 -30 8 -30 2 0 4 14 4 30 0 17 -4 30 -8 30 -5 0
-7 -13 -4 -30z"/>
<path d="M7470 5220 c8 -5 22 -9 30 -9 10 0 8 3 -5 9 -27 12 -43 12 -25 0z"/>
<path d="M4222 5200 c0 -14 2 -19 5 -12 2 6 2 18 0 25 -3 6 -5 1 -5 -13z"/>
<path d="M7992 5200 c0 -14 2 -19 5 -12 2 6 2 18 0 25 -3 6 -5 1 -5 -13z"/>
<path d="M7520 5206 c0 -3 9 -10 20 -16 11 -6 20 -8 20 -6 0 3 -9 10 -20 16
-11 6 -20 8 -20 6z"/>
<path d="M6727 5149 c7 -7 15 -10 18 -7 3 3 -2 9 -12 12 -14 6 -15 5 -6 -5z"/>
<path d="M7600 5150 c0 -6 7 -13 15 -16 8 -4 15 -11 15 -16 0 -6 -8 -7 -17 -4
-10 4 -14 3 -9 -1 4 -4 19 -8 32 -8 l24 -1 -27 28 c-30 31 -33 33 -33 18z"/>
<path d="M5306 5085 c74 -45 160 -136 197 -209 l29 -56 48 40 c48 40 53 55 28
85 -5 6 -21 28 -37 51 -44 63 -160 150 -144 109 3 -8 10 -12 16 -8 6 3 7 1 3
-5 -5 -8 -13 -9 -24 -3 -28 14 -90 23 -72 10 11 -8 6 -9 -20 -4 -19 4 -39 11
-44 16 -6 5 -17 9 -25 9 -8 0 12 -16 45 -35z"/>
<path d="M7072 5096 c22 -22 141 -69 151 -59 7 6 -70 83 -83 83 -14 0 -13 -6
7 -26 16 -15 15 -16 -18 -9 -19 4 -41 13 -50 21 -26 23 -31 16 -7 -10z"/>
<path d="M4938 5073 c7 -3 16 -2 19 1 4 3 -2 6 -13 5 -11 0 -14 -3 -6 -6z"/>
<path d="M4978 5068 c-16 -5 -28 -14 -28 -19 0 -8 54 14 69 27 7 7 -13 3 -41
-8z"/>
<path d="M7022 5058 c-7 -7 -12 -19 -12 -28 0 -9 -5 -21 -12 -28 -7 -7 -8 -12
-2 -12 9 0 47 71 41 77 -2 1 -9 -3 -15 -9z"/>
<path d="M5077 5029 c12 -12 24 -21 27 -18 2 2 -8 13 -22 23 l-27 19 22 -24z"/>
<path d="M7275 5040 c-28 -7 -28 -8 12 -9 23 0 45 4 48 9 7 11 -16 11 -60 0z"/>
<path d="M4924 5022 c5 -8 1 -21 -10 -33 -9 -10 -13 -19 -7 -19 5 0 17 8 27
19 15 17 15 19 -1 32 -13 11 -15 11 -9 1z"/>
<path d="M7728 5023 c7 -3 16 -2 19 1 4 3 -2 6 -13 5 -11 0 -14 -3 -6 -6z"/>
<path d="M7345 4959 c-10 -34 -24 -63 -31 -66 -6 -2 -39 3 -72 11 -75 20 -81
20 -77 -1 2 -10 6 -30 9 -45 l6 -26 52 25 c39 19 57 22 69 15 12 -8 19 -5 31
16 9 15 19 42 23 60 4 19 11 30 17 26 7 -4 8 -2 4 4 -4 7 -3 12 3 12 6 0 8 7
5 15 -11 27 -21 16 -39 -46z"/>
<path d="M6971 4984 c0 -11 3 -14 6 -6 3 7 2 16 -1 19 -3 4 -6 -2 -5 -13z"/>
<path d="M4977 4973 c-4 -3 -7 -13 -7 -21 0 -12 3 -12 15 -2 8 7 15 16 15 21
0 11 -14 12 -23 2z"/>
<path d="M5095 4970 c-3 -6 1 -7 9 -4 18 7 21 14 7 14 -6 0 -13 -4 -16 -10z"/>
<path d="M7000 4970 c0 -6 9 -10 21 -10 13 0 18 -4 13 -12 -4 -6 -3 -8 3 -5 5
3 22 -1 37 -9 16 -7 40 -14 55 -13 20 0 15 4 -24 18 -27 10 -62 23 -77 29 -17
7 -28 8 -28 2z"/>
<path d="M4916 4952 c6 -4 13 -15 17 -24 8 -22 27 -24 27 -3 0 8 -9 19 -19 25
-22 11 -42 14 -25 2z"/>
<path d="M5007 4953 c-3 -5 5 -8 18 -8 13 0 21 3 18 8 -2 4 -10 7 -18 7 -8 0
-16 -3 -18 -7z"/>
<path d="M7415 4950 c-3 -5 -1 -10 4 -10 6 0 11 5 11 10 0 6 -2 10 -4 10 -3 0
-8 -4 -11 -10z"/>
<path d="M7040 4920 c0 -5 5 -10 11 -10 5 0 7 5 4 10 -3 6 -8 10 -11 10 -2 0
-4 -4 -4 -10z"/>
<path d="M5848 4893 c-9 -10 -17 -25 -20 -33 -3 -11 -9 -6 -21 15 -9 17 -16
26 -17 20 0 -5 9 -23 19 -39 l20 -30 7 28 c3 14 18 33 33 41 16 9 20 14 10 15
-9 0 -23 -8 -31 -17z"/>
<path d="M7105 4900 c-16 -7 -17 -9 -3 -9 9 -1 20 4 23 9 7 11 7 11 -20 0z"/>
<path d="M7140 4905 c0 -5 5 -17 10 -25 5 -8 10 -10 10 -5 0 6 -5 17 -10 25
-5 8 -10 11 -10 5z"/>
<path d="M7350 4888 c0 -9 -6 -19 -12 -21 -10 -4 -10 -6 0 -6 14 -1 28 26 18
36 -3 4 -6 -1 -6 -9z"/>
<path d="M7040 4880 c0 -5 5 -10 10 -10 6 0 10 5 10 10 0 6 -4 10 -10 10 -5 0
-10 -4 -10 -10z"/>
<path d="M7115 4870 c-3 -6 1 -7 9 -4 18 7 21 14 7 14 -6 0 -13 -4 -16 -10z"/>
<path d="M5690 4849 c0 -5 5 -7 10 -4 6 3 10 8 10 11 0 2 -4 4 -10 4 -5 0 -10
-5 -10 -11z"/>
<path d="M7127 4838 c-4 -14 -1 -29 9 -38 13 -13 14 -11 8 20 -9 44 -10 46
-17 18z"/>
<path d="M7150 4836 c0 -9 5 -16 10 -16 6 0 10 4 10 9 0 6 -4 13 -10 16 -5 3
-10 -1 -10 -9z"/>
<path d="M5952 4810 c-12 -16 -16 -27 -9 -25 14 6 41 45 34 51 -2 2 -13 -10
-25 -26z"/>
<path d="M5549 4813 c-13 -15 -12 -15 9 -4 23 12 28 21 13 21 -5 0 -15 -7 -22
-17z"/>
<path d="M5806 4803 c-6 -14 -5 -15 5 -6 7 7 10 15 7 18 -3 3 -9 -2 -12 -12z"/>
<path d="M5885 4790 c3 -5 10 -10 16 -10 5 0 9 5 9 10 0 6 -7 10 -16 10 -8 0
-12 -4 -9 -10z"/>
<path d="M7160 4790 c0 -5 5 -10 11 -10 5 0 7 5 4 10 -3 6 -8 10 -11 10 -2 0
-4 -4 -4 -10z"/>
<path d="M5834 4775 c-12 -9 -14 -14 -6 -15 7 0 20 7 28 15 20 19 4 20 -22 0z"/>
<path d="M5636 4758 c-8 -32 -7 -40 3 -34 11 7 21 56 11 56 -4 0 -10 -10 -14
-22z"/>
<path d="M6945 4770 c3 -5 8 -10 11 -10 2 0 4 5 4 10 0 6 -5 10 -11 10 -5 0
-7 -4 -4 -10z"/>
<path d="M6880 4752 c0 -5 14 -7 30 -4 17 2 30 6 30 8 0 2 -13 4 -30 4 -16 0
-30 -4 -30 -8z"/>
<path d="M5858 4744 c-9 -15 -9 -124 -1 -124 4 0 17 12 30 26 20 24 21 29 8
53 -24 43 -32 54 -37 45z"/>
<path d="M6893 4733 c-7 -2 -13 -8 -13 -12 0 -13 56 -71 68 -71 15 0 15 3 0
35 -8 17 -19 25 -37 25 -19 0 -22 3 -13 12 9 9 18 9 37 0 21 -10 25 -9 25 3 0
15 -40 20 -67 8z"/>
<path d="M5500 4689 c0 -5 5 -7 10 -4 6 3 10 8 10 11 0 2 -4 4 -10 4 -5 0 -10
-5 -10 -11z"/>
<path d="M6955 4690 c4 -6 11 -8 16 -5 14 9 11 15 -7 15 -8 0 -12 -5 -9 -10z"/>
</g>
</svg>
